<svg height="402.85742" viewBox="0 0 644.86047 402.85742" width="644.86047" xmlns="http://www.w3.org/2000/svg"><path d="m26.67375 400.60743c1.11231-1.23749 41.975646-47.925 90.80741-103.75 48.83176-55.82499 90.48607-103.25432 92.56513-105.39848l3.7801-3.89849 10.8368 7.97343c5.96025 4.38539 30.49957 22.65033 54.53184 40.58875l43.69504 32.61531 53.71488-40.03302c29.5432-22.01816 54.2544-40.24002 54.9137-40.49303.9655-.37047 50.6754 55.8717 186.8349 211.38631l2.8536 3.25923h-298.27787-298.27791zm-26.67375-185.70131c0-102.32678.3375-186.021905.75-185.989185 1.60227.12713 195.75 145.650825 195.75 146.724695 0 .98291-54.41532 63.44782-167.25 191.99107l-29.25 33.32211zm546.32215 72.57146-98.1778-112.04075 51.1778-38.17471c28.1478-20.99609 72.3278-53.935745 98.1778-73.199235l47-35.02454.2552 92.988945c.1404 51.14392.1404 134.50193 0 185.24l-.2552 92.25104zm-383.59585-167.9433-159.77369-119.176845 160.02369-.25305c88.01304-.13918 231.99025-.13918 319.94935 0l159.9256.25305-159.599 118.999995c-87.7795 65.45-159.85856 119.07958-160.17568 119.17684-.31711.0973-72.47473-53.45274-160.35027-118.99999z"/></svg>