<svg height="720" viewBox="0 0 720 720" width="720" xmlns="http://www.w3.org/2000/svg"><g transform="translate(.000003 -6.101699)"><path d="m72.20339 568.62147c0-.47874 181.24082-207.77925 186.45777-213.26758l2.18499-2.29866 53.84498 40.14388c29.61475 22.07913 54.33262 40.32075 54.92862 40.53692s25.56036-17.86245 55.47636-40.17473c52.16317-38.9049 54.46284-40.49277 56.10346-38.73826 4.34435 4.64595 185.67571 211.98959 186.35337 213.08606.61197.99019-59.9369 1.24344-297.29053 1.24344-163.93246 0-298.05902-.23898-298.05902-.53107zm-25.239415-185.71893c.175343-101.3375.413442-185.25487.52911-186.48304.179224-1.90303 14.693699 8.56161 98.210305 70.80758 53.9 40.17234 98.35875 73.39596 98.79722 73.83026.73708.73008-195.866287 226.0952-197.240279 226.0952-.338338 0-.471698-82.9125-.296356-184.25zm546.282635 71.14167c-81.69722-93.21589-98.02662-112.32677-96.89917-113.40451 3.10946-2.97239 194.98835-145.48716 195.88084-145.48716.62998 0 .97511 65.65672.97511 185.5 0 102.025-.38287 185.5-.85082 185.5s-45.06563-50.44875-99.10596-112.10833zm-383.60411-167.98786c-87.96651-65.54077-160.12661-119.33126-160.355777-119.53442-.229166-.20316 143.979767-.36939 320.464287-.36939 276.69494 0 320.67932.19486 319.41667 1.4151-2.15493 2.08255-317.14058 236.71532-318.46226 237.22249-.6181.23719-73.09641-53.19301-161.06292-118.73378z" fill="#dcdcdc"/><path d="m72.20339 568.63937c0-.4623 181.27065-207.81203 186.4446-213.26804l2.16328-2.28122 53.86962 40.1292c29.62829 22.07106 54.35401 40.31122 54.94606 40.53368.59204.22247 25.55197-17.85502 55.4665-40.1722 44.31589-33.06105 54.61806-40.33142 55.621-39.25247 4.14441 4.45852 186.29428 212.70024 186.88309 213.65295.55254.89403-69.82798 1.17127-297.33513 1.17127-163.93246 0-298.05902-.23093-298.05902-.51317zm-25.227681-183.73673c.149775-100.23756.374775-184.14571.5-186.46257l.227681-4.21247 98 73.02775c53.9 40.16527 98.35462 73.3755 98.78804 73.80051.7155.70163-195.115162 225.20559-196.987199 225.82983-.440462.14687-.678297-81.7455-.528522-181.98305zm546.293291 69.13151c-81.16734-92.61747-98.02331-112.34053-96.91151-113.39558 3.14635-2.98574 195.01047-145.48603 195.88415-145.48603.61221 0 .96175 67.41874.96175 185.5 0 102.025-.37732 185.5-.83849 185.5s-45.05433-50.45327-99.0959-112.11839zm-383.70414-168.10236-160.043703-119.27925 160.422143-.25304c88.23219-.13918 232.49199-.13918 320.57735 0l160.15519.25304-159.44839 118.8628c-87.69662 65.37454-159.93676 119.05021-160.53364 119.27925-.59689.22905-73.10491-53.25921-161.12895-118.8628z" fill="#d7d7d7"/><path d="m72.20339 568.66127c0-.41756 182.14875-208.74091 186.91449-213.77393 1.58335-1.67214 4.5098.34859 55.51622 38.33424 29.61462 22.05469 54.34667 40.29204 54.96012 40.52744s25.59049-17.83491 55.50453-40.15626c44.17422-32.96203 54.61805-40.33597 55.60781-39.26224 2.70059 2.9297 185.09556 211.46836 186.36927 213.08262 1.30326 1.65171-13.65688 1.7394-296.75 1.7394-163.96734 0-298.12244-.22107-298.12244-.49127zm-25.241131-177.75859c.142377-96.93758.367377-180.83529.5-186.43936l.241131-10.18922 98 73.01431c53.9 40.15787 98.35243 73.35546 98.78318 73.77241.70569.68307-195.177769 225.22305-197.013449 225.83528-.423352.1412-.65324-79.05584-.510862-175.99342zm546.666971 63.54607c-53.85921-61.43709-98.05709-112.00585-98.21751-112.37502-.32959-.75848 194.46774-146.24357 196.48226-146.74349 1.06152-.26342 1.29877 33.57691 1.29877 185.25 0 102.06477-.36848 185.5723-.81884 185.5723s-44.88547-50.26671-98.74468-111.70379zm-384.05335-168.54621-160.002297-119.25 160.395937-.25304c88.21776-.13918 232.45789-.13918 320.53361 0l160.13768.25304-159.96871 119.24681c-87.98279 65.58574-160.22188 119.24824-160.53131 119.25-.30943.002-72.56364-53.65931-160.56491-119.24681z" fill="#d1d1d1"/><path d="m72.20339 568.68319c0-.39734 182.12084-208.70261 186.91702-213.79101 1.56886-1.66446 4.62418.44814 56.08029 38.77672 29.93156 22.2954 54.92744 40.34276 55.54639 40.10524.919-.35265 51.28471-37.73764 98.84341-73.36855 8.06688-6.0437 10.11126-7.16307 11.10471-6.08023 2.83239 3.08729 185.1314 211.51282 186.38062 213.09211 1.30195 1.64595-13.94043 1.73507-296.75 1.73507-163.96734 0-298.12244-.21121-298.12244-.46935zm-25.244762-188.14532.255238-186.61472 3.244762 2.44719c1.784619 1.34595 45.769762 34.09366 97.744762 72.77269 51.975 38.67904 95.07604 70.84653 95.78008 71.48331 1.00939.91296-19.55313 24.93333-97.23577 113.58726-54.183717 61.8362-98.859755 112.5441-99.280081 112.68422s-.649372-83.72186-.508991-186.35995zm546.691822 73.90565c-53.87088-61.43996-98.0764-112.00297-98.23448-112.36224-.29392-.66802 193.49939-145.49725 195.94072-146.43407 1.12595-.43207 1.3467 29.89195 1.3467 184.99428 0 102.03108-.24882 185.51105-.55294 185.51105-.30411 0-44.62911-50.26906-98.5-111.70902zm-382.49299-167.36137c-87.14974-64.93871-159.112999-118.71371-159.918356-119.5-1.269618-1.23955 41.132673-1.42961 318.949996-1.42961 216.31565 0 320.08523.32906 319.40146 1.01283-1.67434 1.67434-318.84268 237.96235-319.4331 237.97525-.30027.007-71.85027-53.11975-159-118.05847z" fill="#ccc"/><path d="m72.20339 568.44039c0-.39168 1.734431-2.52918 3.854291-4.75s43.807699-49.71285 92.639649-105.53785c48.83194-55.825 89.52327-102.28826 90.42516-103.25168 1.54559-1.65103 4.76667.57729 56.05854 38.78094 29.9303 22.29294 54.9312 40.33596 55.55756 40.09561 1.00119-.3842 26.44735-19.24853 90.37006-66.99521 14.83713-11.0825 18.63683-13.49393 19.59974-12.43868 2.91365 3.19308 185.14022 211.54375 186.36744 213.08518 1.29853 1.631-14.68353 1.72384-296.75 1.72384-163.96734 0-298.12244-.32047-298.12244-.71215zm-25.244762-187.90592c.20339-148.70889.508097-186.41781 1.5-185.63204.684619.54235 44.894762 33.49186 98.244762 73.22114 53.35 39.72927 97.34455 72.55573 97.76566 72.94767.69204.6441-195.247518 225.23992-197.017414 225.83132-.411535.13751-.633389-83.72813-.493008-186.36809zm596.697522 130.88561c-26.37402-30.10285-70.60381-80.56072-98.28844-112.12861-41.23614-47.02025-50.09421-57.62215-49-58.64629 1.52331-1.42575 192.67468-143.7407 194.58042-144.86792.99079-.58604 1.29682 37.12107 1.5 184.81953.14039 102.05569.009 185.55578-.29198 185.55577s-22.12598-24.62962-48.5-54.73248zm-432.48852-224.35142c-87.15533-64.94613-159.123169-118.72113-159.928526-119.5-1.263142-1.22159 42.549738-1.41612 318.949996-1.41612 204.79551 0 320.06775.34654 319.45392.96037-1.60907 1.60907-318.90096 238.00536-319.47539 238.02309-.29467.009-71.84467-53.12121-159-118.06734z" fill="#c7c7c7"/><path d="m72.855297 567.90254c.667464-1.08363 181.892193-208.31512 186.272193-213.0033 1.544-1.65263 4.76065.57442 56.02825 38.79127 29.91461 22.29951 54.91615 40.34273 55.55897 40.09606.64283-.24668 25.39329-18.50271 55.00103-40.56897 29.60774-22.06625 54.14421-39.77049 54.52549-39.34276 4.95709 5.56099 185.8414 212.32289 186.8346 213.56345 1.29558 1.61823-15.3287 1.71425-296.80901 1.71425-238.28914 0-298.026815-.25107-297.411523-1.25zm-25.896656-186.85495c.211926-154.51696.481363-186.01823 1.587421-185.5938 1.124311.43144 193.709408 143.56799 195.913348 145.61024.67937.62953-195.27388 225.23799-197.026401 225.83853-.40129.13752-.614756-83.49722-.474368-185.85497zm547.744749 74.58649c-53.35-60.83615-97.57328-111.41559-98.27396-112.39874-1.15542-1.62124 7.86973-8.60153 97-75.02235l98.27396-73.23479.25517 93.16657c.14034 51.24162.14034 134.77671 0 185.63353l-.25517 92.46696zm-383.52181-168.57377c-87.163-64.95073-159.137119-118.72573-159.942476-119.5-1.25907-1.21048 43.440789-1.40777 318.949996-1.40777 201.61871 0 320.06207.35105 319.46429.94684-1.57121 1.56598-318.90764 238.00498-319.47181 238.03001-.287.0127-71.837-53.11836-159-118.06908z" fill="#c2c2c2"/><path d="m72.845535 567.92254c.616254-.99711 182.778715-209.26071 186.757005-213.51645.91308-.97676 12.92916 7.52621 55.53522 39.29858 29.90352 22.29977 54.90849 40.33841 55.5666 40.08587.65812-.25254 25.10926-18.27262 54.33588-40.04461 29.22663-21.772 53.51936-39.69973 53.98385-39.83942.62307-.18737 179.64922 203.10502 188.05174 213.54138 1.29259 1.60546-15.97886 1.70465-296.80901 1.70465-235.70403 0-298.022185-.25772-297.421285-1.23zm-25.642145-186.6627c0-153.11548.233264-186.23177 1.308867-185.81902 1.096614.42081 193.693943 143.55913 195.942833 145.6247.54149.49735-184.899708 213.58466-195.852972 225.05131-1.198538 1.25471-1.398728-25.20251-1.398728-184.85699zm547.5 74.34032c-53.35-60.82899-97.57126-111.39482-98.26947-112.36852-1.14731-1.59998 8.18732-8.81714 97-74.99655l98.26947-73.22619.25517 92.49242c.14034 50.87083.14034 134.38845 0 185.5947l-.25517 93.10229zm-384.98442-169.69561-159.972359-119.25201 160.228389-.25305c88.12561-.13918 232.30366-.13918 320.39565 0l160.16727.25305-159.67802 119c-87.82291 65.45-160.01339 119.11341-160.4233 119.25201-.4099.13861-72.73284-53.41139-160.71763-119z" fill="#bdbdbd"/><path d="m72.80924 567.98127c.574151-.929 182.44746-208.86515 186.80704-213.5769.90327-.97624 12.99556 7.58703 55.50428 39.30584 29.89218 22.30471 54.91965 40.33519 55.61661 40.06774.69695-.26745 25.16697-18.29424 54.37782-40.05954 29.21085-21.76531 53.47646-39.68411 53.92358-39.81958.59856-.18134 179.4747 202.97119 188.03726 213.55698 1.2901 1.59492-16.52009 1.69673-296.80901 1.69673-227.60072 0-298.010118-.27724-297.45758-1.17127zm-25.60585-186.73572c0-151.75748.239326-186.21515 1.290559-185.81175 1.073507.41194 193.661341 143.54048 195.956561 145.63213.52622.47954-186.832006 215.71091-196.32891 225.53661-.557727.57704-.91821-72.1928-.91821-185.35699zm547.5 74.24786c-53.35-60.87009-97.54694-111.43954-98.21542-112.37656-1.07709-1.50975 9.96298-10.03412 97-74.8966l98.21542-73.19295.25517 93.14202c.14034 51.22811.14034 134.73439 0 185.56951l-.25517 92.42748zm-384.97268-169.5968-159.972675-119.24407 160.222675-.25305c88.12248-.13918 232.28779-.13918 320.36737 0l160.14469.25305-159.66409 119c-87.81525 65.45-159.99286 119.10983-160.39469 119.24407-.40183.13423-72.7183-53.41577-160.70328-119z" fill="#b8b8b8"/><path d="m73.330945 567.41193c1.227655-1.55698 183.516775-209.9906 186.274465-212.99055.87492-.95179 13.46715 7.96804 55.49189 39.30824 29.89808 22.29667 54.9462 40.31452 55.66249 40.03965s25.19823-18.30578 54.40431-40.06869 53.45199-39.67673 53.87979-39.80849c.54541-.16797 161.8343 183.03739 187.96864 213.51045 1.42889 1.66611-12.79777 1.75-296.7766 1.75-283.319698 0-298.208605-.0873-296.904985-1.74061zm-26.127555-186.05939c0-102.41.3375-186.19975.75-186.19944.572016.00043 195.19008 144.60618 196.84234 146.25845.26448.26448-191.385894 219.70019-196.676906 225.19099-.554036.57496-.915434-72.55874-.915434-185.25zm546.21543 72.6289c-54.05651-61.68787-97.93151-112.49511-97.5-112.90497.43152-.40986 44.65957-33.43441 98.28457-73.38787l97.5-72.64267.25517 93.13271c.14034 51.22299.14034 134.71942 0 185.54763l-.25517 92.41493zm-383.67647-168.09164-159.961047-119.23726 160.211047-.25305c88.11607-.13918 232.26643-.13918 320.33414 0l160.12309.25305-159.65518 119c-87.81036 65.45-159.97825 119.10676-160.3731 119.23726-.39485.13049-72.70038-53.41951-160.67895-119z" fill="#b3b3b3"/><path d="m73.330945 567.41499c1.180935-1.49509 183.224485-209.64421 186.271055-212.98287.85363-.93546 13.8088 8.24259 55.48488 39.30812 30.22297 22.52832 54.96504 40.30067 55.70822 40.01548.73534-.28218 25.23408-18.31868 54.44163-40.08111 29.20756-21.76244 53.43581-39.67022 53.84056-39.79507.51633-.15927 157.32754 178.00877 187.9282 213.523 1.43561 1.66613-12.78805 1.75-296.76956 1.75-283.119435 0-298.207684-.0883-296.904985-1.73755zm-26.127555-186.06245c0-102.41.3375-186.19631.75-186.19179.565824.006 195.24557 144.65403 196.85734 146.2658.24057.24057-191.419954 219.6475-196.700028 225.17599-.543236.56879-.907312-73.76633-.907312-185.25zm546.22034 72.60906c-54.05381-61.68236-97.92881-112.47861-97.5-112.88056s44.65466-33.42032 98.27966-73.37415l97.5-72.64332.25517 93.12389c.14034 51.21814.14034 134.70389 0 185.52389l-.25517 92.4zm-383.66383-168.07678-159.943487-119.23228 160.193487-.25305c88.10642-.13918 232.24173-.13918 320.30069 0l160.10721.25305-159.64987 119c-87.80743 65.45-159.96817 119.10453-160.35721 119.23228-.38903.12775-72.6819-53.42225-160.65082-119z" fill="#aeaeae"/><path d="m73.330945 567.42422c1.186718-1.49444 183.297955-209.72226 186.269195-212.98208.84019-.92178 14.04737 8.4371 55.38929 39.25 29.85733 22.25322 54.66766 40.4604 55.13409 40.4604.46642 0 25.28439-18.21581 55.15105-40.47957s54.37684-40.37626 54.46707-40.25c.0902.12626 41.91957 47.92957 92.95407 106.22957 51.03451 58.3 93.47123 106.7875 94.30383 107.75 1.44128 1.66614-12.77984 1.75-296.76361 1.75-282.511395 0-298.204886-.0914-296.904985-1.72832zm-26.127555-186.14073c0-129.3858.319999-186.19095 1.047499-185.94845.576125.19204 45.10904 33.18122 98.962031 73.3093 96.67558 72.03693 97.89173 72.98574 96.11225 74.98416-.99126 1.11322-44.90947 51.29904-97.59603 111.52404-52.686548 60.225-96.408432 110.15893-97.159739 110.96429-1.155033 1.23813-1.366011-27.30904-1.366011-184.83334zm546.5 72.96601c-53.9-61.51192-98-112.11362-98-112.44823 0-.33462 44.1-33.48346 98-73.6641l98-73.05572.25517 93.11495c.14034 51.21322.14034 134.69 0 185.50395l-.25517 92.389zm-383.93271-168.37176-159.932713-119.2252 160.182713-.25305c88.10049-.13918 232.21666-.13918 320.25815 0l160.07544.25305-159.62285 119c-87.79257 65.45-159.93902 119.10134-160.32544 119.2252-.38643.12386-72.67231-53.42614-160.6353-119z" fill="#a8a8a8"/><path d="m73.330945 567.43151c1.004101-1.25912 182.756975-209.02457 186.747955-213.47542.34347-.38305 25.05037 17.50445 54.90421 39.75 29.85385 22.24555 54.67523 40.44645 55.15863 40.44645s25.26466-18.18628 55.06947-40.41395l54.19057-40.41395 21.67672 24.66395c11.9222 13.56517 53.57315 61.11395 92.55768 105.66395s71.78881 82.0125 72.8984 83.25l2.01744 2.25h-298.29676c-282.044011 0-298.221982-.0938-296.924315-1.72103zm-26.127555-186.14802c0-126.42234.328453-186.18813 1.021956-185.95696.562077.18735 45.092532 33.17916 98.956564 73.31511 96.61211 71.98902 97.91032 73.00172 96.13566 74.99268-.98942 1.11002-44.90856 51.29322-97.59808 111.51822-52.689521 60.225-96.410448 110.15893-97.157615 110.96429-1.145025 1.2342-1.358485-27.80879-1.358485-184.83334zm546.62061 73.06795c-53.83367-61.43439-97.93367-112.02481-98-112.42313-.0663-.39833 43.97939-33.59516 97.87939-73.77073l98-73.04649.25517 93.10013c.14034 51.20507.14034 134.6664 0 185.46963l-.25517 92.3695zm-384.03662-168.47711-159.91602-119.22179 160.16602-.25305c88.0913-.13918 232.19572-.13918 320.23203 0l160.06602.25305-159.97674 119.25c-87.9872 65.5875-160.12941 119.23731-160.31602 119.22179-.1866-.0155-72.30149-53.67801-160.25529-119.25z" fill="#a3a3a3"/><path d="m73.330945 567.44277c4.82538-6.01137 186.907645-213.39089 187.433835-213.4746.35926-.0572 24.75605 17.84845 54.21509 39.79023s54.10559 40.02901 54.7701 40.19385 25.39392-17.74949 54.95425-39.80962 54.29591-39.89833 54.96796-39.64044 42.53745 47.64722 93.03423 105.30962 92.71981 105.85323 93.82897 107.09073l2.01664 2.25h-298.29676c-281.286555 0-298.218497-.0975-296.924315-1.70977zm-26.127555-186.15928c0-123.1724.337259-186.18467.995331-185.96428.547432.18333 45.074898 33.17831 98.949929 73.32218 96.565 71.95343 97.92906 73.01738 96.1552 75-.98967 1.10613-44.908 51.28615-97.5963 111.51115-52.688294 60.225-96.406033 110.15893-97.150529 110.96429-1.138571 1.23164-1.353631-28.13409-1.353631-184.83334zm546.56327 72.97195c-53.8652-61.47663-97.7918-112.18681-97.61466-112.68929.17713-.50249 44.24866-33.65641 97.93672-73.67538l97.61467-72.76177.25517 93.09117c.14034 51.20015.14034 134.65312 0 185.45106l-.25517 92.35988zm-383.96566-168.38448-159.902381-119.21842 160.152381-.25305c88.08382-.13918 232.17571-.13918 320.20422 0l160.05183.25305-159.98186 119.25c-87.99002 65.5875-160.12585 119.23579-160.30183 119.21842-.17598-.0174-72.27604-53.67987-160.22236-119.25z" fill="#9e9e9e"/><path d="m73.330945 567.45337c5.060927-6.26573 186.922545-213.39214 187.435485-213.47462.35383-.0569 24.74249 17.84643 54.19703 39.78517 29.45453 21.93874 54.10985 40.02482 54.78959 40.1913.67975.16647 25.41302-17.74057 54.96284-39.79343s54.23557-39.93043 54.85722-39.72795c.8986.2927 169.27381 191.59798 184.8016 209.9687l4.01492 4.75h-298.21557c-280.488065 0-298.133974-.10101-296.843115-1.69917zm-26.127555-186.16988c0-122.2049.339788-186.18294.987659-185.96428.543213.18333 45.066155 33.18313 98.939871 73.33288 96.43014 71.86522 97.9243 73.03064 96.15608 75-.98788 1.10025-44.90291 51.27545-97.58897 111.50045-52.686053 60.225-96.400735 110.15893-97.143733 110.96429-1.134948 1.2302-1.350907-28.31764-1.350907-184.83334zm546.64319 73.03764c-53.82125-61.41772-97.74496-112.11859-97.60825-112.66859s44.17228-33.73575 97.85681-73.7461l97.60825-72.7461.25517 93.0755c.14034 51.19153.14034 134.62814 0 185.41469l-.25517 92.33919zm-384.0217-168.45523-159.878503-119.21336 160.128503-.25305c88.07068-.13918 232.14861-.13918 320.17317 0l160.04466.25305-159.63371 119c-87.79854 65.45-159.93114 119.09601-160.29466 119.21336s-72.60628-53.43265-160.53946-119z" fill="#999"/><path d="m73.330945 567.455c4.948424-6.12058 186.941095-213.37456 187.446295-213.46459.34683-.0618 24.71592 17.83689 54.15353 39.77488s54.09249 40.02329 54.78863 40.18955c.69613.16627 25.45218-17.73794 55.01345-39.78713 29.56126-22.04919 54.24788-39.92564 54.85915-39.72544.88021.28828 168.8861 191.19278 184.77595 209.96027l4.02168 4.75h-298.21557c-280.376477 0-298.133461-.10155-296.843115-1.69754zm-26.127555-186.18579c0-122.04353.340182-186.16839.986465-185.95.542556.18333 45.059579 33.18333 98.926715 73.33333 96.37866 71.83606 97.91169 73.03189 96.1486 75-.98541 1.1-45.10979 51.5-98.05418 112-52.944381 60.5-96.655158 110.4275-97.135057 110.95-.497001.54112-.872543-79.22619-.872543-185.33333zm546.57123 72.95451c-53.86083-61.46683-97.77613-112.16587-97.58955-112.66453.18657-.49866 44.25452-33.63719 97.92877-73.64118l97.58955-72.73453.25517 93.06393c.14034 51.18517.14034 134.61474 0 185.39906l-.25517 92.33512zm-383.93263-168.36293-159.861408-119.20825 160.111408-.25305c88.06127-.13918 232.12766-.13918 320.14753 0l160.03613.25305-159.6448 119c-87.80463 65.45-159.93339 119.09371-160.28613 119.20825-.35273.11453-72.57896-53.43547-160.50273-119z" fill="#949494"/><path d="m74.856395 565.66434c1.565847-1.91851 43.796995-50.27568 93.846995-107.46037 56.81725-64.91661 91.56665-103.85812 92.50853-103.66856.82968.16698 25.44723 18.14914 54.70565 39.96036s53.64808 39.65677 54.19924 39.65677c.55117 0 24.86761-17.78777 54.03654-39.52839 29.16892-21.74061 53.66911-39.77194 54.44486-40.06962.94052-.36091 32.14187 34.54927 93.64682 104.77838 50.73001 57.9258 93.15226 106.33213 94.27168 107.56963l2.03531 2.25h-298.27131-298.27131zm-27.653005-184.39513c0-119.71155.346109-186.16421.968493-185.95.532671.18333 45.0489 33.18333 98.924957 73.33333 96.44016 71.87001 97.92863 73.03096 96.159 75-.98859 1.1-45.1152 51.5-98.05913 112-52.943924 60.5-96.6513 110.4275-97.127501 110.95-.48806.53551-.865819-80.32582-.865819-185.33333zm546.57843 72.94235c-53.85686-61.4671-97.95686-112.02246-98-112.34524-.0431-.32278 44.02157-33.45038 97.92157-73.61689l98-73.03001.25517 93.04596c.14034 51.17528.14034 134.59415 0 185.37526l-.25517 92.32929zm-383.92273-168.35328-159.844298-119.20574 160.094298-.25305c88.05187-.13918 232.10405-.13918 320.11597 0l160.02167.25305-159.64532 119c-87.80492 65.45-159.92717 119.09258-160.27167 119.20574-.34449.11315-72.55628-53.43685-160.47065-119z" fill="#8f8f8f"/><path d="m75.323905 565.11405c1.858717-2.22117 44.104485-50.57829 93.879485-107.46027 56.32628-64.36866 91.06812-103.30757 92.00451-103.11933.82749.16635 25.43492 18.14848 54.68318 39.96027 29.24827 21.8118 53.64158 39.65782 54.20736 39.65782s24.91189-17.79528 54.10247-39.54507c29.19058-21.74978 53.68469-39.77949 54.43136-40.06601.86998-.33385 34.34931 37.11881 93.21435 104.27705 50.52122 57.6389 92.90927 106.04361 94.19566 107.56602l2.3389 2.76801h-298.21838-298.218379zm-28.120515-183.78151c0-102.399.275788-186.18.612862-186.18.52699 0 48.302347 35.48032 169.021338 125.52352l28.18579 21.02352-95.52271 108.97648c-52.537484 59.93706-97.046982 110.74498-98.909991 112.90648l-3.387289 3.93zm546.5 72.75892c-53.9-61.5101-98-112.05191-98-112.31515 0-.26323 44.1-33.34114 98-73.50647l98-73.02786.25517 93.03468c.14034 51.16908.14034 134.57343 0 185.34301l-.25517 92.30832zm-383.82002-168.23607-159.820018-119.20285 160.070018-.25305c88.03851-.13918 232.07439-.13918 320.07973 0l160.00972.25305-159.64373 119c-87.80405 65.45-159.92092 119.09128-160.25971 119.20285-.3388.11157-72.535-53.43843-160.43601-119z" fill="#8a8a8a"/><path d="m75.085172 565.40254c13.813146-16.98426 185.034148-210.72772 186.164018-210.65207.80447.0539 25.37985 17.94136 54.61195 39.75 29.23211 21.80864 53.63491 39.65207 54.22845 39.65207s24.96874-17.80132 54.16711-39.55849c29.19837-21.75716 53.67666-39.78439 54.39619-40.06051.80455-.30873 36.64393 39.85175 93.08533 104.30849 50.47739 57.64578 92.91609 106.04801 94.30822 107.56051l2.53113 2.75h-298.27112-298.271119zm-27.881782-184.07c0-102.399.27141-186.18.603132-186.18.486302 0 135.633358 100.41971 185.032288 137.48644l12.13541 9.10588-95.50487 108.95384c-52.527676 59.92461-97.026113 110.72234-98.885414 112.88384l-3.380546 3.93zm546.5 72.72323c-53.9-61.51192-98-112.03957-98-112.28367s44.1-33.30863 98-73.47674l98-73.03292.25517 93.02445c.14034 51.16345.14034 134.55592 0 185.31659l-.25517 92.29214zm-383.80916-168.20352-159.809152-119.19971 160.059152-.25305c88.03254-.13918 232.05432-.13918 320.04841 0l159.98924.25305-159.63026 119c-87.79664 65.45-159.9043 119.08987-160.23924 119.19971-.33495.10984-72.52311-53.44016-160.41815-119z" fill="#858585"/><path d="m75.093638 565.40254c14.234223-17.45356 185.060522-210.72689 186.184622-210.64979.80356.0551 25.60552 18.13096 55.11547 40.16854l53.65445 40.06832 54.26458-40.41854c29.84552-22.23019 54.59397-40.41853 54.99655-40.41853s42.01219 47.1375 92.46579 104.75c50.45361 57.6125 92.87428 105.9875 94.26815 107.5l2.53432 2.75h-298.27112-298.271119zm-27.890248-184.07c0-102.399.3375-186.16005.75-186.13566 1.215737.0719 195.56651 145.36 195.91256 146.45566.17371.55-42.48479 49.825-94.79668 109.5-52.311893 59.675-96.632034 110.2685-98.489205 112.43l-3.376675 3.93zm546.59947 72.81126c-53.84529-61.4501-97.94529-111.96828-98-112.26261-.0547-.29433 44.00053-33.39647 97.90053-73.56032l98-73.02517.25517 93.00782c.14034 51.1543.14034 134.5338 0 185.28778l-.25517 92.27995zm-383.89862-168.29757-159.799155-119.19369 160.049155-.25305c88.02703-.13918 232.03739-.13918 320.02302 0l159.97388.25305-159.62587 119c-87.79423 65.45-159.89497 119.08716-160.22387 119.19369-.32891.10653-72.50763-53.44347-160.39716-119z" fill="#808080"/><path d="m75.597607 564.90254c10.233794-12.32772 184.257903-210.15673 185.105783-210.42656.55-.17503 25.3852 17.86882 55.18934 40.09743l54.18934 40.41567 53.69055-39.9995c29.5298-21.99972 54.24653-40.21285 54.92607-40.47361.9509-.3649 90.56595 101.00377 186.85829 211.36602l2.85359 3.27055h-298.17054-298.170539zm-28.394217-183.68549c0-102.33548.3375-186.04134.75-186.01302 1.621988.11135 195.75 145.63627 195.75 146.74082 0 .90189-120.41179 139.05614-187.75 215.41462l-8.75 9.9221zm546.60303 72.90531c-53.84333-61.44173-97.94333-111.94044-98-112.21937-.0567-.27893 43.99697-33.37709 97.89697-73.55148l98-73.04434.25517 93.00209c.14034 51.15115.14034 134.51982 0 185.26371l-.25517 92.26163zm-383.8941-168.28534-159.791066-119.18448 160.041066-.25305c88.02259-.13918 232.02205-.13918 319.99881 0l159.95773.25305-159.6234 119c-87.79287 65.45-159.88635 119.08301-160.20773 119.18448-.32139.10146-72.49032-53.44854-160.37541-119z" fill="#7a7a7a"/><path d="m76.029109 564.40254c14.082808-16.6735 183.864071-209.65942 184.674281-209.91442.55-.17311 25.38894 17.87144 55.19765 40.099l54.19765 40.41374 53.72591-40.02215c29.54925-22.01217 54.26124-40.22757 54.91553-40.47864.94369-.36213 60.6095 67.15227 186.81685 211.39118l2.85359 3.26129h-298.19671-298.196707zm-28.825719-183.20232c0-102.32622.3375-186.02215.75-185.99095 1.614071.12208 195.75 145.64164 195.75 146.72942 0 .96624-71.88743 83.47006-174.25 199.98335l-22.25 25.32587zm546.31521 72.57975-98.18478-112.04662 51.18478-38.17913c28.15164-20.99852 72.33479-53.94225 98.18479-73.20829l47-35.02915.25517 92.99728c.14034 51.14851.14034 134.51322 0 185.25491l-.25517 92.25763zm-383.5891-167.94674-159.773882-119.18069 160.023882-.25305c88.01314-.13918 231.99494-.13918 319.95956 0l159.93567.25305-159.61036 119c-87.7857 65.45-159.86925 119.08131-160.18567 119.18069-.31642.0994-72.47356-53.45062-160.3492-119z" fill="#757575"/><path d="m73.880889 566.90254c1.114371-1.2375 43.506481-49.6125 94.204681-107.5s92.44032-105.25 92.76025-105.25c.70726 0 10.36231 7.11232 66.05329 48.65764l43.19573 32.2239 53.73711-40.04232c29.55541-22.02327 54.26154-40.24355 54.90251-40.48952.93565-.35904 52.66492 58.17306 186.82252 211.39128l2.85359 3.25902h-298.2779-298.277908zm-26.677499-185.70057c0-102.32719.3375-186.02164.75-185.98768 1.588646.13081 195.75 145.65247 195.75 146.71233 0 .99522-39.88072 46.7869-160.25 184.00166l-36.25 41.32312zm546.32229 72.56065-98.1777-112.03579 49.1777-36.67358c27.04774-20.17048 71.22771-53.11059 98.17771-73.20026l49-36.52667.25517 92.99251c.14034 51.14588.14034 134.50211 0 185.23605l-.25517 92.24354zm-383.58407-167.93476-159.761783-119.17532 160.011783-.25305c88.00648-.13918 231.97488-.13918 319.92979 0l159.91801.25305-159.59861 119c-87.77923 65.45-159.85484 119.0789-160.16801 119.17532-.31317.0964-72.4622-53.45357-160.33118-119z" fill="#707070"/><path d="m73.889141 566.90254c1.118908-1.2375 43.512369-49.6125 94.207699-107.5s92.4958-105.24008 92.88994-105.22796c.39413.0121 25.12824 18.22651 54.96469 40.47642l54.24807 40.45438 13.78957-10.32734c50.55479-37.86171 93.7185-69.88176 94.72034-70.2662.64749-.24846 42.086 46.24798 92.08559 103.32543s92.42321 105.47325 94.27471 107.54622l3.36636 3.76905h-298.29067-298.290678zm-26.685751-185.69959c0-102.32773.3375-186.01923.75-185.98111 1.598052.14765 195.75 145.65991 195.75 146.70996 0 .61212-21.6 25.76467-48 55.89456s-70.6125 80.57683-98.25 112.10431l-50.25 57.32269zm546.33483 72.53838-98.16517-112.01591 47.16517-35.16834c25.94084-19.34258 70.11517-52.28059 98.16517-73.19557l51-38.02723.25517 92.98853c.14034 51.14369.14034 134.48886 0 185.21149l-.25517 92.22295zm-383.58108-167.91776-159.746245-119.17103 159.996245-.25305c87.99794-.13918 231.95001-.13918 319.8935 0l159.89726.25305-159.58462 119c-87.77154 65.45-159.83781 119.07696-160.14726 119.17103-.30944.0941-72.44844-53.45594-160.30888-119z" fill="#6b6b6b"/><path d="m74.364496 566.38498c13.490083-15.96249 186.096594-212.22569 186.627504-212.20584.39126.0146 25.1202 18.22994 54.95319 40.47848l54.24181 40.45188 53.64518-40.06243c29.50484-22.03434 54.18254-40.26863 54.83931-40.52066.65678-.25203 42.10763 46.23977 92.11302 103.31511 50.00538 57.07534 92.43374 105.46932 94.28524 107.54218l3.36636 3.76884h-298.20525-298.205257zm-27.161106-185.18142c0-102.32806.227691-186.05102.50598-186.05102 1.281309 0 195.99402 145.83666 195.99402 146.79634 0 .59862-15.10959 18.32683-33.57686 39.39603s-62.67977 71.51809-98.25 112.10865l-64.67314 73.80102zm546.34755 72.52177-98.15244-112.01073 45.65144-34.03103c25.1083-18.71707 69.2769-51.64868 98.15245-73.18136l52.501-39.15033.25517 92.97973c.14034 51.13886.14034 134.4753 0 185.19209l-.25517 92.21236zm-383.58334-167.90247-159.735789-119.17032 159.985789-.25305c87.99218-.13918 231.93433-.13918 319.87144 0l159.88565.25305-133.51122 99.5c-73.43117 54.725-145.39343 108.3875-159.91613 119.25s-26.5037 19.71414-26.62443 19.67032c-.12074-.0438-72.10063-53.70633-159.95531-119.25z" fill="#666"/><path d="m74.361417 566.40254c1.392714-1.5125 43.823673-49.90941 94.291023-107.54869s92.15289-104.66428 92.63452-104.5c.48164.16428 25.17741 18.40139 54.87951 40.52691l54.0038 40.22821 54.24706-40.47821c29.83588-22.26302 54.52927-40.47822 54.87419-40.47822s39.9537 44.87801 88.0195 99.72892c48.0658 54.8509 90.47093 103.2259 94.23361 107.5l6.84124 7.77108h-298.27833-298.278332zm-27.158027-185.20423c0-102.32517.223281-186.04577.496179-186.04577 1.246803 0 196.003821 145.85656 196.003821 146.79031 0 .58088-44.2125 51.51129-98.25 113.17869l-98.25 112.12254zm546.35229 72.507-98.14772-111.98789 43.64772-32.53093c24.00624-17.89202 68.17271-50.82334 98.14771-73.18073l54.5-40.64979.25517 92.97769c.14034 51.13773.14034 134.4636 0 185.16861l-.25517 92.19093zm-383.5685-167.94968-159.7162-119.10309 159.9662-.25305c87.98142-.13918 231.91243-.13918 319.84669 0l159.88048.25305-158.97638 118.5c-87.437 65.175-159.49572 118.77139-160.13048 119.10309-.63475.3317-73.02639-52.9933-160.87031-118.5z" fill="#616161"/><path d="m74.364032 566.40254c1.394153-1.5125 43.830018-49.90778 94.301908-107.54506 50.4719-57.63728 92.14792-104.66228 92.61339-104.5.46546.16228 25.15448 18.4009 54.86448 40.53026l54.01819 40.2352 54.2707-40.48161c29.84888-22.26489 54.54225-40.48323 54.87416-40.4852.3319-.002 39.9319 44.87849 88 99.73437 48.06809 54.85589 90.47509 103.23089 94.23777 107.5l6.84124 7.76204h-298.27833-298.278332zm-27.152772-185.19498c.01279-102.33026.233573-186.05502.490622-186.05502 1.216794 0 196.560538 146.3134 196.299918 147.02958-.16413.45101-23.69841 27.513-52.29841 60.13775s-72.81596 83.08335-98.257695 112.13022l-46.257694 52.81248.02326-186.05501zm546.35322 72.48745-98.13891-111.97871 41.63841-31.03188c22.90113-17.06754 67.06365-49.9903 98.13892-73.16169l56.50049-42.12982.25517 92.95922c.14034 51.12757.14034 134.44075 0 185.14041l-.25517 92.18119zm-383.55982-167.94344-159.698733-119.09903 159.948733-.25305c87.9718-.13918 231.88737-.13918 319.81238 0l159.86364.25305-158.96969 118.5c-87.43333 65.175-159.48447 118.76956-160.11364 119.09903-.62918.32947-73.00839-52.99553-160.84269-118.5z" fill="#5c5c5c"/><path d="m74.368924 566.40254c1.396845-1.5125 43.836086-49.90665 94.309416-107.54256s92.14494-104.66091 92.60358-104.5c.45863.16091 25.14032 18.40164 54.8482 40.53497l54.01433 40.24241 54.27947-40.48188c29.85371-22.26503 54.5479-40.48661 54.87597-40.49241.32808-.006 39.54077 44.42697 87.13931 98.73947s90.00144 102.6875 94.22868 107.5l7.68588 8.75h-298.26228-298.262272zm-27.131281-185.75c.05409-102.025.28068-185.5.503527-185.5 1.155682 0 196.50802 146.34948 196.25747 147.02757-.42193 1.14193-195.799312 223.97243-196.378618 223.97243-.264401 0-.436471-83.475-.382379-185.5zm546.965747 73.75421c-53.625-61.19771-97.5-111.79906-97.5-112.44745 0-.64838 43.875-33.87527 97.5-73.83753l97.5-72.65866.25517 92.92412c.14034 51.10826.14034 134.40601 0 185.1061l-.25517 92.182zm-384.17366-168.65665-159.673658-119.09756 159.923658-.25305c87.95801-.13918 231.85624-.13918 319.77384 0l159.85018.25305-158.96586 118.5c-87.43122 65.175-159.4763 118.7689-160.10018 119.09756-.62387.32866-72.98747-52.99634-160.80798-118.5z" fill="#575757"/><path d="m74.849798 565.89125c116.843562-133.5373 185.786162-211.75828 186.439022-211.53023.45899.16034 25.12929 18.4072 54.82289 40.54858l53.98835 40.25706 54.30167-40.48498c29.86591-22.26673 54.56273-40.49491 54.88182-40.50706.67478-.0257 187.25554 212.70293 187.75317 214.06533.20047.54882-118.3284.91259-297.35359.91259h-297.686924zm-27.561926-185.2697c.126265-102.04205.531372-185.40455.900238-185.25 2.436005 1.02062 196.04503 146.17252 195.80985 146.80191-.43704 1.16964-195.847168 223.97908-196.435934 223.97908-.27705 0-.400419-83.48895-.274154-185.53099zm546.915518 73.7416c-53.625-61.194-97.5-111.77588-97.5-112.40417 0-.6283 43.875-33.84122 97.5-73.8065l97.5-72.66415.25518 92.33211c.14035 50.78265.14035 134.0634 0 185.06832l-.25518 92.73621zm-382.5-167.40474c-86.9-64.82944-158.9-118.50829-160-119.28634-1.72592-1.22077 41.909951-1.42181 318.41667-1.46708 176.22916-.0289 320.22916.10837 320 .30493-1.45383 1.24698-318.61146 237.34563-319.41667 237.78033-.55.29693-72.1-52.5024-159-117.33184z" fill="#515151"/><path d="m74.383188 566.40254c1.40469-1.5125 42.715152-48.65 91.801032-104.75s90.50789-103.30346 92.04892-104.89657l2.80186-2.89658 54.52687 40.67387 54.52686 40.67387 54.30733-40.5007c29.86903-22.27538 54.56251-40.51267 54.87441-40.52729.65634-.0308 187.26547 212.72474 187.76625 214.07478.19669.53023-121.73898.89862-297.43709.89862h-297.770422zm-27.179798-154.08692c0-84.61031.296139-168.01166.658087-185.33633l.658087-31.4994 97.882856 72.96349c53.83557 40.12993 97.75193 73.3082 97.59191 73.72951-.40065 1.05487-195.84562 223.97965-196.369802 223.97965-.231626 0-.421138-69.22662-.421138-153.83692zm547 42.02185c-53.625-61.18964-97.5-111.75681-97.5-112.37148s43.875-33.81923 97.5-73.78792l97.5-72.67035.25518 92.32241c.14035 50.77733.14035 134.04615 0 185.04183l-.25518 92.71942zm-384.13627-168.57569-159.636269-119.10924 159.886269-.25305c87.93745-.13918 231.80367-.13918 319.70272 0l159.81645.25305-158.29303 118c-87.06117 64.9-159.09107 118.49916-160.06645 119.10924-1.51384.94689-25.13992-16.32517-161.40969-118z" fill="#4c4c4c"/><path d="m78.388492 561.90254c3.536633-3.9875 44.823128-51.125 91.747768-104.75s86.57424-98.8044 88.11022-100.39866l2.79269-2.89866 54.51412 40.68985 54.51412 40.68985 54.08835-40.29119c29.7486-22.16015 54.436-40.41013 54.8609-40.55549.73184-.25038 187.31625 211.98888 188.02006 213.87229.19485.52143-123.34794.89201-297.37257.89201h-297.705898zm-31.18391-135.5c.000655-76.8625.297942-160.26138.660636-185.33084l.659445-45.58083 97.875817 72.97146c53.8317 40.13431 97.74692 73.30512 97.58937 73.71291-.40113 1.03826-195.862113 223.9773-196.371269 223.9773-.228355 0-.414655-62.8875-.413999-139.75zm546.998808 27.90413c-53.625-61.19335-97.5-111.75084-97.5-112.34997 0-.59914 43.875-33.78801 97.5-73.75304l97.5-72.6637.25518 92.30629c.14035 50.76846.14035 134.02461 0 185.01367l-.25518 92.70738zm-337.5-133.82287c-61.6-45.95904-133.35315-99.48501-159.451446-118.94658l-47.451446-35.38468h319.923672c311.9443 0 319.87447.0464 317.95144 1.86012-4.44611 4.19339-316.6129 236.13568-317.74435 236.08646-.67533-.0294-51.62787-37.65627-113.22787-83.61532z" fill="#474747"/><path d="m78.391118 561.90254c3.538076-3.9875 44.828242-51.125 91.755922-104.75s86.56649-98.79479 88.08625-100.37732l2.7632-2.87732 54.54915 40.66901 54.54914 40.66901 54.08281-40.29169c29.74555-22.16043 54.42273-40.40927 54.83818-40.55298.71519-.2474 187.31633 212.01773 188.02095 213.88021.19177.50688-126.10421.88108-297.37257.88108h-297.705898zm-31.187728-121.0852c0-68.93436.298078-152.34698.662395-185.36136l.662395-60.02616 27.587605 20.64633c15.173183 11.35548 59.216445 44.20657 97.873915 73.00242 38.65748 28.79585 70.15748 52.68148 70 53.07917-.40669 1.0271-195.884889 223.9948-196.378662 223.9948-.224207 0-.407648-56.40084-.407648-125.3352zm547 13.46879c-53.625-61.19245-97.5-111.73416-97.5-112.3149s43.875-33.76463 97.5-73.74197l97.5-72.68608.25518 92.30468c.14035 50.76757.14035 134.01801 0 185.00098l-.25518 92.6963zm-341.5-136.80502c-63.8-47.60401-135.55281-101.12731-159.450691-118.94066l-43.450691-32.38791h319.914972c276.3594 0 319.71562.1933 318.4507 1.41981-3.73045 3.61715-317.18658 236.57309-318.25293 236.52085-.66625-.0326-53.41136-39.00807-117.21136-86.61209z" fill="#424242"/><path d="m74.860435 565.90254c1.677158-1.7875 43.002645-48.925 91.834425-104.75 48.83177-55.825 90.02166-102.79018 91.53308-104.36707l2.74805-2.86707 54.57758 40.67274 54.57757 40.67274 54.07446-40.30567c29.74095-22.16812 54.40605-40.42195 54.81132-40.56407.69738-.24455 187.31453 212.04848 188.0198 213.88867.18848.49177-129.07285.86973-297.44616.86973h-297.779504zm-27.629183-116.75c-.01444-64.625.271542-148.13479.635515-185.57731l.661769-68.0773 21.587427 16.13352c11.873085 8.87344 55.337427 41.25111 96.587427 71.95037 41.25 30.69927 75.6145 56.39205 76.36556 57.09506 1.13386 1.06133-14.81438 19.74783-93.98924 110.12694-52.445146 59.8668-96.809974 110.42372-98.588508 112.34872l-3.233697 3.5zm546.972138 5.10792c-53.625-61.19465-97.5-111.72821-97.5-112.29679 0-.56859 43.875-33.73986 97.5-73.71394l97.5-72.68015.25518 92.29148c.14035 50.76032.14035 133.99994 0 184.97694l-.25518 92.68546zm-384.60139-168.92389-159.101391-118.68403 159.932411-.25305c87.96283-.13918 231.78173-.13918 319.59755 0l159.66512.25305-159.29587 118.75c-87.61273 65.3125-159.836 118.72031-160.49615 118.68403-.66016-.0363-72.79591-53.47378-160.30167-118.75z" fill="#3d3d3d"/><path d="m73.370057 568.22163c.38969-1.08831 186.935113-214.06909 187.498653-214.06909.2951 0 91.23013 67.52512 106.0362 78.73871l3.20153 2.42472 54.08849-40.33172c29.74868-22.18244 54.41371-40.44612 54.8112-40.58595.68115-.23962 187.31871 212.0757 188.03059 213.90002.18385.47113-132.93774.85422-296.83333.85422-182.98072 0-297.038584-.3577-296.833333-.93091zm-25.825647-186.44268c.315056-101.68048.780314-185.08108 1.033907-185.33467.396613-.39661 190.749223 140.78095 194.492333 144.24785 1.13291 1.0493-15.04449 20.00917-94.38028 110.61339-52.66115 60.14086-97.091076 110.69702-98.733168 112.34702l-2.98562 3zm546.65898 72.44557c-53.625-61.19624-97.5-111.71721-97.5-112.26882s43.875-33.70778 97.5-73.68038l97.5-72.67745.25518 92.27734c.14035 50.75253.14035 133.97835 0 184.94626l-.25518 92.66893zm-384.59004-168.87298-159.090034-118.699 159.921064-.25305c87.95658-.13918 231.766-.13918 319.57649 0l159.65543.25305-158.94241 118.5c-87.41833 65.175-159.63723 118.58955-160.48646 118.699-.84922.10946-73.13456-53.21554-160.63408-118.5z" fill="#383838"/><path d="m73.370057 568.23331c.183333-.50557 41.058333-47.37304 90.833333-104.14992s91.87048-104.80381 93.54551-106.72651l3.04551-3.49581 53.45449 39.77514c29.39997 21.87633 54.00203 40.20959 54.67125 40.74059.86424.68574 17.03904-10.83705 55.8293-39.77233 53.12631-39.62914 54.66112-40.68626 56.39787-38.84485 5.34891 5.67127 186.05607 212.4101 186.05607 212.85828 0 .29405-133.6875.53464-297.08333.53464-180.22708 0-296.952222-.36157-296.750003-.91923zm-25.773402-186.5081c.345434-101.71003.807819-185.10709 1.027522-185.32679.352764-.35276 191.002093 141.12841 194.440493 144.2946 1.12316 1.03424-15.38763 20.38236-94.38647 110.60652-52.661264 60.14415-97.089171 110.703-98.728681 112.353l-2.980926 3zm546.477555 72.33255c-53.55395-61.10213-97.50174-111.44491-97.66176-111.87283-.16002-.42793 43.82748-33.66465 97.75-73.85939l98.04094-73.08133v184.95416c0 101.72479-.17063 184.95417-.37918 184.95417-.20854 0-44.19604-49.99265-97.75-111.09478zm-383.07926-167.73208c-86.73964-64.72023-158.267142-118.23564-158.95-118.92314-.993231-.99998 62.6458-1.25 318.17273-1.25 273.504 0 319.20382.20081 317.95 1.39714-3.88656 3.70832-317.28263 236.59274-318.2966 236.526-.64223-.0423-72.13649-53.02978-158.87613-117.75z" fill="#333"/></g></svg>