<svg height="719.31238" viewBox="0 0 311.86191 719.31238" width="311.86191" xmlns="http://www.w3.org/2000/svg"><path d="m158.21998 718.21674c-32.29664-4.11675-51.72279-11.50284-66.445993-25.26366-7.53597-7.04339-12.65865-14.87179-22.072556-33.73097-39.75464-79.64179-62.8801297-166.12973-68.71309974-256.98293-1.31765-20.52344-1.3178-62.99959-.0003-82.68752 6.09287004-91.0477 28.81181974-176.69962 67.62129974-254.936816 10.658436-21.486626 17.334826-30.670537 29.109576-40.042516 14.200613-11.302821 28.936613-16.8837415 57.795093-21.8885635 46.05815-7.987698 94.85097 2.023632 135.39471 27.7803375 10.56309 6.710543 13.05349 9.998061 13.05349 17.231619 0 4.159559-3.34766 10.085911-43.67917 77.325089-30.52562 50.89118-44.60391 73.47992-46.75 75.01078-2.2765 1.6239-4.49351 2.18616-8.57083 2.17366-5.17461-.0159-6.97733-.82934-30.47116-13.75-21.75848-11.9663-25.55582-13.73314-29.5156-13.73314-6.35385 0-11.04805 2.74078-13.76324 8.03588l-2.25 4.3879v170.82795c0 169.98024.0101 170.84779 2.04034 174.82734 2.74174 5.37427 7.1221 7.91249 13.66314 7.91719 4.94254.004 5.99309-.5224 20.94996-10.48846 8.66057-5.77071 17.19633-10.76419 18.96835-11.09663 5.6132-1.05304 9.47109.53608 15.69078 6.46324 13.77148 13.12377 109.29207 113.40919 110.39233 115.89899 1.65931 3.75491 1.58249 9.60302-.1816 13.82508-2.45635 5.87888-24.61238 27.58754-36.22026 35.4889-19.80791 13.48305-40.95357 22.93702-58.30304 26.06659-14.32439 2.58389-42.80177 3.24508-57.74222 1.34066z"/></svg>