<svg height="720.01007" viewBox="0 0 321.74646 720.01007" width="321.74646" xmlns="http://www.w3.org/2000/svg"><g transform="translate(-19.206502 .056194)"><path d="m167.5 718.96079c-1.65-.39829-6.15-.78342-10-.85585-17.9004-.33677-41.2481-14.08158-55.12326-32.4511-4.921283-6.51537-20.690842-37.94046-29.274473-58.33729-29.269467-69.55147-45.677577-136.35567-52.148123-212.31655-.585631-6.875-1.316256-26-1.623611-42.5-2.007889-107.79095 20.35557-209.66711 67.624934-308.063659 11.170185-23.252007 17.997773-32.607135 31.805333-43.579497 14.94402-11.8754645 28.49595-17.4645631 46.2392-19.0700093 15.13006-1.36900006 77.62718-1.39524181 91-.03821 12.3717 1.2554415 22.77722 4.6501985 40.93284 13.3541643 15.30082 7.33535 29.75014 16.760651 33.02732 21.54374 3.28394 4.792965 4.03619 14.514442 1.50483 19.447107-6.49897 12.663998-86.97954 145.161544-89.42034 147.215334-4.11385 3.46159-9.37028 5.01029-15.12769 4.45707-3.86272-.37116-9.93309-3.24434-29.82388-14.11602-16.44039-8.98581-26.00337-13.65002-27.98649-13.65002-4.26 0-7.50786 1.71641-9.44132 4.9895-1.53612 2.60046-1.66527 16.01438-1.66527 172.96445 0 187.60612-.47747 174.168 6.30263 177.38537 4.88436 2.31778 7.45092 1.26251 23.60024-9.7034 7.73518-5.25245 15.95193-10.05828 18.25945-10.67963 5.60863-1.51024 11.82754-.4459 16.61469 2.84354 6.4458 4.42918 114.18316 117.16236 116.30697 121.70017 2.68735 5.7419 2.46397 13.00771-.58821 19.13264-3.51865 7.06102-27.27523 30.12112-38.99577 37.85253-9.73086 6.41891-25.68693 15.02473-34.5 18.60737-3.025 1.2297-8.65 2.65145-12.5 3.15944-8.504 1.12206-80.79081 1.72486-85 .70881zm8.26166-.64787c-.95609-.25029-2.75609-.25937-4-.0202-1.24391.23919-.46166.44398 1.73834.45508s3.21775-.18461 2.26166-.4349zm65.98834-.002c-.9625-.25152-2.5375-.25152-3.5 0-.9625.25153-.175.45733 1.75.45733s2.7125-.2058 1.75-.45733zm-58.98834-716.9980002c-.95609-.2502926-2.75609-.2593739-4-.020181-1.24391.2391933-.46166.4439781 1.73834.4550775 2.2.011099 3.21775-.1846042 2.26166-.4348965zm60.98834-.0022453c-.9625-.2515276-2.5375-.2515276-3.5 0-.9625.2515275-.175.4573228 1.75.4573228s2.7125-.2057953 1.75-.4573228z" fill="#fefefe"/><path d="m174.5 718.9848c1.87398-.4134-.003-.6676-5-.67725-10.62033-.0205-25.23478-3.91957-37.5-10.00482-8.1414-4.03927-10.93819-6.14981-19.55655-14.75802-9.96299-9.95126-10.14578-10.22148-19.647171-29.04471-94.4568055-187.12859-95.6283744-412.64065-3.120934-600.73987 4.55287-9.257539 9.723349-18.953244 11.489955-21.54601 4.68812-6.880551 15.41974-17.781785 22.49118-22.846664 13.39921-9.597102 35.54374-17.0660376 53.34352-17.9917674 16.03019-.83369694 67.50124-1.02465626 64.5-.2392971-2.37316.6210043-2.00292.713919 1.77197.4446824 15.19505-1.08375875 50.79474 11.9786551 74.41971 27.3064521 11.1945 7.262949 13.76111 11.182222 13.11961 20.033921-.38459 5.306623-2.49085 9.063865-43.20931 77.078553-23.54276 39.325-44.29184 72.92962-46.10907 74.67692-3.18409 3.06157-8.71039 5.30587-13.09369 5.3175-3.86742.0103-8.76301-2.28874-32.39922-15.21492-12.925-7.06843-24.49641-13.1052-25.71425-13.41503-3.17554-.80791-9.37771 2.56254-12.02255 6.53341l-2.2632 3.39789v170.70423 170.70423l2.2534 3.34382c3.19714 4.74424 7.91955 7.29251 11.89588 6.41916 1.74934-.38422 9.92212-5.24802 18.16174-10.80846 14.81597-9.99843 15.05531-10.11407 21.7109-10.49015 4.80318-.2714 7.71394.0868 10.16755 1.25107 2.07736.98577 25.85665 24.97617 60.09049 60.62396 49.02598 51.05089 56.80639 59.56234 57.7942 63.2245 1.33296 4.9417.66599 12.43662-1.46191 16.42811-2.5424 4.76897-25.72893 27.73019-33.11225 32.79047-23.92465 16.39717-50.89146 28.08363-62.33954 27.01576-3.53105-.32938-3.93345-.24627-1.66046.34293 1.65.42771-12.975.78295-32.5.78943-19.525.006-34.15-.28604-32.5-.65003zm5.25-718.6470807c.6875-.27741228 1.8125-.27741228 2.5 0s .125.50438596-1.25.50438596-1.9375-.22697368-1.25-.50438596z" fill="#fcfcfc"/><path d="m180.5 719.00835c-2.75-.45823-7.84345-.87256-11.31878-.92074-8.63888-.11978-25.00552-4.40111-34.75893-9.09255-10.60049-5.0989-21.04525-13.38114-27.86222-22.09352-14.126875-18.05476-41.091243-80.00217-55.672774-127.90154-50.77845999-166.80391-35.550785-346.95899 42.389475-501.5 6.584808-13.056449 10.577979-18.813831 18.974839-27.358059 22.09415-22.4819244 46.19087-29.6740381 99.24839-29.62252206 37.56984.0364783 51.37704 2.44410156 76.954 13.41881306 13.90135 5.964872 34.40091 17.912192 37.92943 22.105599 3.2639 3.878925 4.96153 9.34766 4.34006 13.981057-.35927 2.678538-13.06842 24.736149-43.29036 75.133412-23.52998 39.23793-43.49084 72.32374-44.35746 73.52402-.86662 1.20027-3.30094 3.16279-5.40959 4.36115-3.12972 1.77863-4.9665 2.09748-10 1.73591-5.69039-.40876-8.01759-1.46787-30.16608-13.72856-13.71056-7.58972-25.50054-13.47211-27.5-13.72059-4.64388-.57711-9.88373 2.22641-12.46598 6.66977-2.02379 3.4824-2.03402 4.36029-2.03402 174.54402 0 163.1771.083 171.17067 1.80433 173.79774 2.33127 3.55791 7.43997 6.64975 10.99533 6.6545 3.75781.005 6.89187-1.71911 22.41353-12.33029 12.33807-8.43476 13.60413-9.0613 19.11601-9.46 4.21767-.30508 6.93006.0605 9.50106 1.28051 2.25768 1.07134 20.28359 19.08434 48.38399 48.34933 24.63216 25.65301 50.23403 52.30377 56.89304 59.2239 10.76365 11.18573 12.24373 13.1508 13.33673 17.70693 1.03107 4.29801.97813 5.98934-.32817 10.48284-1.38245 4.75546-3.10706 6.93726-15.33673 19.40246-15.02081 15.3101-24.14025 22.01474-43.20526 31.76469-17.43055 8.91407-25.47831 11.79717-35.57386 12.74433-13.09629 1.22868-57.15515 1.8213-63 .84739z" fill="#f9f9f9"/><path d="m181 719.00345c-2.475-.47036-7.4798-.88856-11.12178-.92933-9.84018-.11015-24.80923-4.25488-36.87822-10.21109-9.26452-4.57216-11.6191-6.31037-20.01085-14.77246-10.78021-10.87056-14.644912-17.20619-27.81999-45.60691-68.600064-147.87702-82.1489226-309.94433-39.054225-467.1547 12.834814-46.82167 39.78574-113.427775 55.379205-136.863303 15.98599-24.025465 42.34379-38.6462746 75.00586-41.6061494 28.10806-2.54718457 59.0748-2.05971597 78 1.227851 22.37663 3.8871277 66.50852 24.8952974 73.00005 34.7503174 3.28675 4.989735 4.09289 10.80745 2.14391 15.472018-2.52617 6.045989-86.25281 144.995156-88.803 147.373696-3.18789 2.97331-7.09657 4.31661-12.5603 4.31661-4.01025 0-7.82996-1.76601-30.28066-14-18.80021-10.24474-26.60465-13.999-29.09576-13.99626-4.09922.005-9.13567 2.8937-11.59991 6.65439-1.71852 2.62265-1.81676 10.80939-2.06573 172.14855-.16991 110.10956.087 170.68877.73405 173.09176.5475 2.03325 2.38218 5.02538 4.07706 6.64919 2.62853 2.51828 3.8686 2.95237 8.43414 2.95237 5.11274 0 5.96155-.41692 18.94752-9.30653 7.47724-5.1186 15.1496-9.9561 17.04969-10.75 4.57464-1.91141 10.15809-1.78569 14.77883.33275 4.26023 1.95317 114.68574 116.28417 117.42137 121.57429 2.18921 4.23346 2.05052 12.32673-.2884 16.83068-2.93014 5.64241-24.96862 27.74595-33.91286 34.01297-20.42019 14.30794-45.3255 25.61004-59.48 26.99219-12.53732 1.22424-56.78901 1.80743-62 .8171z" fill="#f5f5f5"/><path d="m185.97645 719.66666c-.28795-.3009-6.36295-.99498-13.5-1.54241-28.4899-2.18524-50.51228-12.7865-65.76666-31.65913-11.524482-14.25803-37.128701-71.42397-51.044167-113.96512-23.411305-71.57101-33.686239-136.09908-33.677567-211.5.007302-63.48409 7.180924-117.64952 23.529867-177.6655 13.474604-49.46446 40.704477-116.984272 56.796747-140.8345 12.18499-18.059279 31.39154-31.061066 54.70652-37.0333404 23.4866-6.01623308 68.99009-7.0921839 96.97881-2.2931082 18.32092 3.1413888 48.67164 16.2071196 66.70507 28.7159656 7.74354 5.371295 11.41607 13.183366 9.26364 19.705295-1.00471 3.044306-82.27825 139.818048-87.138 146.642938-3.17574 4.45991-9.2619 7.06332-15.25523 6.52557-4.20217-.37704-9.20502-2.74035-29.07548-13.73505-26.70264-14.77508-30.52193-16.04583-36.68605-12.20615-6.8491 4.26636-6.28707-10.94877-6.57521 178.00301-.2421 158.753-.1379 171.58512 1.41996 174.86806 3.1036 6.54036 11.64588 9.26915 18.27887 5.8391 1.56103-.80725 8.78735-5.51197 16.05848-10.45495 18.76798-12.75863 24.09024-13.09225 35.32718-2.21445 14.94034 14.46283 108.37839 112.54467 109.92677 115.39003 2.12175 3.89902 2.27378 11.55775.32214 16.22866-2.16129 5.17271-24.33786 27.36321-34.84911 34.87102-9.88925 7.06353-29.21749 17.46376-42.22303 22.71957-5.38337 2.17553-10.78017 3.50743-16.5 4.07211-10.5877 1.04526-56.31194 2.26598-57.02355 1.52238z" fill="#f1f1f1"/><path d="m181.5 718.95399c-2.75-.42833-7.475-.81878-10.5-.86768s-10.10559-1.2047-15.73466-2.56846c-29.41145-7.12556-46.42159-20.94623-60.643681-49.27278-42.121961-83.89551-65.672096-171.00036-71.70351-265.20964-1.487082-23.22787-.641674-79.67579 1.513186-101.03543 7.835232-77.66528 25.455438-144.91374 56.0858-214.054489 15.181859-34.269431 21.022375-44.278122 32.586315-55.842063 12.63036-12.630361 25.73762-19.875189 44.76326-24.7421671 22.93883-5.86802041 69.13654-6.9601508 95.57724-2.2594804 23.56515 4.1894506 67.14847 25.1946515 74.27266 35.7960825 1.64993 2.455245 2.28339 4.841355 2.28339 8.601095 0 5.073273-1.05092 6.961256-42.08271 75.602112-23.1455 38.7194-43.22073 72.07058-44.61163 74.11374-1.41895 2.08435-4.48507 4.66179-6.98573 5.87234-7.592 3.67522-10.32535 2.7835-38.20107-12.46267-27.33854-14.95235-30.038-15.80021-36.92904-11.59887-6.61334 4.03205-6.18982-8.21384-6.18982 178.97437 0 145.74705.20588 170.55697 1.43982 173.51022 1.89825 4.54315 6.838 7.48129 12.58588 7.48604 4.07411.003 6.00653-.99018 19.36599-9.95699 8.16216-5.4784 16.39242-10.47298 18.28948-11.09906 3.73561-1.23286 9.16577-.58784 13.37481 1.58874 3.88536 2.0092 113.06506 115.9028 115.69402 120.68918 2.73874 4.98626 2.86944 10.82142.36584 16.33327-1.06099 2.33586-7.2975 9.60214-14.72803 17.15993-14.53096 14.77981-26.61548 23.41882-46.38781 33.16184-16.08324 7.92518-25.88897 10.81669-41 12.09006-14.03934 1.18307-44.87992 1.17764-52.5-.009z" fill="#ededed"/><path d="m181.5 719.01365c-2.75-.46114-7.52094-.87786-10.60209-.92604-8.23624-.1288-25.11354-4.66379-35.39791-9.51155-19.3428-9.11764-29.49009-20.34128-43.169178-47.74821-37.957286-76.0499-60.487208-156.79616-68.31217-244.82785-1.830547-20.59387-2.424688-69.40111-1.113847-91.5 5.361828-90.39278 27.606519-176.93671 65.578307-255.135237 11.574478-23.836307 14.178828-28.025182 23.455538-37.726264 12.315-12.878358 26.05627-20.841088 44.40536-25.7318309 26.84762-7.1559281 74.67177-7.7638716 102.15599-1.2986132 19.05492 4.4823892 41.68713 14.3141681 59.59712 25.8899021 8.54396 5.5222 11.1962 9.25873 11.66699 16.436646l.36502 5.565397-43.12441 72c-23.71843 39.6-44.54419 73.47119-46.27946 75.26932-3.53199 3.65992-9.50787 5.68992-14.40869 4.89463-1.79062-.29058-14.41208-6.63384-28.04767-14.09614-21.50022-11.76633-25.38795-13.56585-29.28045-13.55307-5.66205.0186-8.81769 1.60814-11.70843 5.89771l-2.28002 3.38332v171.41785c0 125.01179.30455 172.00918 1.12496 173.60212 3.48855 6.77346 10.01134 9.68094 16.55423 7.37891 2.10144-.73937 10.2303-5.69813 18.06412-11.01948 8.39412-5.70194 15.37538-9.75028 17-9.85806 4.58597-.30425 8.6117.14827 11.43145 1.28496 2.61724 1.05505 111.02473 113.02731 115.69114 119.49541 2.89071 4.0068 3.79691 10.86415 2.11084 15.973-1.75652 5.32232-21.39331 26.27124-31.93649 34.07049-19.74152 14.60367-48.21096 28.04492-62.54025 29.52707-11.7624 1.21664-55.19672 1.81875-61 .84561z" fill="#e9e9e9"/><path d="m181.5 719.00968c-2.75-.45896-7.31449-.87389-10.14332-.92207-2.82882-.0482-10.41972-1.42018-16.86867-3.04889-18.29741-4.62107-28.54544-10.06598-40.32711-21.42632-8.36794-8.06869-12.40193-14.1218-21.404628-32.11826-61.649743-123.23826-83.6227085-262.51199-63.18524-400.49414 10.153266-68.54907 32.280515-138.87653 62.926343-200 7.672175-15.302245 11.058105-20.431246 19.151555-29.01073 12.70782-13.470951 27.24186-21.692722 46.85107-26.5032035 25.80953-6.33152827 70.50293-7.1604062 96.49426-1.7895699 18.19005 3.7587827 44.02809 14.7272274 61.69742 26.1910294 7.19794 4.669992 9.66207 6.885566 11.36029 10.214341 4.44355 8.710071 5.6904 6.159127-41.52738 84.960893-23.54275 39.29048-43.94344 72.66675-45.33487 74.16949-1.39144 1.50273-4.52793 3.49531-6.96998 4.42793-6.32903 2.41708-9.51714 1.30593-32.32431-11.26597-27.25817-15.02542-30.9274-16.66644-35.39224-15.82883-4.3361.81346-8.80266 4.32451-10.38624 8.16437-.845 2.04896-1.07405 47.60221-.87971 174.95466l.26276 172.18441 2.91495 3.04247c3.55039 3.70573 8.52032 5.48147 12.74468 4.55365 1.73399-.38085 9.91606-5.23776 18.18237-10.79314 14.40185-9.67876 15.28296-10.11512 21.09383-10.44642 4.48423-.25566 6.91125.12588 9.31547 1.46444 4.68395 2.60782 114.56997 117.36008 116.71807 121.88688 2.32015 4.88935 1.50431 12.405-1.88133 17.33116-1.35783 1.97568-7.55812 8.80496-13.77841 15.17619-12.77127 13.08116-26.62705 22.93877-45.30963 32.23526-15.056 7.4919-24.55122 10.79478-34 11.8268-11.38199 1.24318-54.0461 1.85723-60 .86357z" fill="#e5e5e5"/><path d="m178.5 718.86207c-36.72706-3.81397-58.43962-14.50394-74.13567-36.49998-4.609318-6.45939-19.661232-36.67136-27.831059-55.86209-74.2599257-174.43479-72.4454685-368.97686 5.057189-542.220528 14.336162-32.045989 21.75112-44.510996 32.70512-54.979327 12.51943-11.964364 24.67821-18.539613 43.2763-23.4030412 27.40174-7.1655977 74.41928-7.7246956 100.92812-1.2001627 19.11454 4.7045988 42.09703 14.7549619 59.30486 25.9343239 6.64095 4.314404 8.69018 6.244229 10.22804 9.632065 2.36589 5.211938 2.47773 9.831748.33981 14.03633-5.7104 11.230499-86.90062 144.97044-89.02007 146.63759-3.44073 2.70648-9.30341 4.2226-13.26475 3.43033-1.75062-.35013-14.21647-6.6683-27.7019-14.04038-13.48543-7.37209-25.79876-13.65975-27.36296-13.97259-3.98467-.79694-9.17674 1.15261-12.60808 4.73417l-2.91495 3.04255v173.86867 173.86867l2.91495 3.04255c3.97893 4.15312 8.77562 5.64787 13.54176 4.2199 2.03514-.60975 9.28994-4.87279 16.12177-9.47343 6.83184-4.60064 13.86167-9.1057 15.62186-10.01125 4.64218-2.38821 12.01766-2.11551 16.46219.60868 5.69246 3.48908 113.78236 116.508 115.95711 121.24488 2.1662 4.71826 2.30335 7.31784.67975 12.88398-1.8239 6.25283-25.14976 29.70048-38.29939 38.49936-20.0754 13.43316-43.56501 23.85136-57 25.28086-12.21249 1.29942-52.87032 1.7498-63 .69787z" fill="#e1e1e1"/><path d="m182.5 718.95399c-2.75-.42833-7.25-.81878-10-.86768-6.23251-.11081-23.86369-4.2843-32.5-7.69309-14.15444-5.58683-29.47378-18.28354-37.85105-31.37106-4.724413-7.38079-18.278577-35.60211-26.990341-56.19698-71.0833133-168.04307-70.4905244-358.79025 1.638878-527.357021 9.13838-21.356438 19.392332-42.362768 24.689083-50.578259 9.52431-14.772605 26.47325-28.606029 42.7782-34.9148023 26.20144-10.13796353 74.9386-12.9624049 109.23523-6.3304579 18.29999 3.5386722 47.28261 15.7825752 64.67522 27.3224802 11.15613 7.402038 14.12824 14.440641 9.93696 23.53288-2.38311 5.169724-84.76261 142.40836-86.94976 144.85238-2.72995 3.05056-7.23734 4.87985-12.20876 4.95485-4.19831.0633-7.3167-1.36683-29.83646-13.68363-13.83148-7.5649-26.6872-14.00412-28.56826-14.30937-4.59124-.74506-11.48857 2.64436-14.07078 6.91453-1.95047 3.22545-1.97816 5.67165-1.97816 174.77124v171.5l2.26576 3.64354c1.24617 2.00394 3.89633 4.41729 5.88925 5.36299 6.29683 2.98804 10.2282 1.6742 24.80148-8.28856 7.17393-4.90433 14.48366-9.65969 16.24385-10.56746 4.64383-2.39496 12.02329-2.12306 16.40957.60461 5.65566 3.51706 113.78746 116.56069 115.9767 121.24488 4.47445 9.57374 1.43448 15.73375-16.34315 33.11673-15.24592 14.90747-26.07733 22.55107-45.24346 31.92774-17.1063 8.36894-26.04901 11.03737-41.5 12.38327-13.91705 1.21228-42.78902 1.22729-50.5.0263z" fill="#ddd"/><path d="m187 719.70499c-.275-.27602-5.9-.99506-12.5-1.59787-29.22248-2.669-52.90837-13.92365-66.94748-31.81093-12.591295-16.04261-35.148644-66.10618-50.597757-112.29619-56.22084868-168.09-43.673921-351.33596 34.995747-511.107537 9.3478-18.984599 17.03389-29.571738 27.712-38.171635 12.67605-10.208992 22.33904-14.8524648 39.87167-19.1600214 26.19241-6.43515729 68.3168-7.2665448 94.46008-1.86431 23.89886 4.9384488 63.33704 23.5894964 72.23102 34.1593884 3.22084 3.827744 4.41109 9.163982 3.0403 13.630443-.54993 1.791822-20.5148 35.770641-44.36638 75.508482-34.35432 57.23591-44.09354 72.74467-46.86499 74.62791-2.62427 1.78324-4.85835 2.37728-8.94052 2.37728-5.10516 0-6.97881-.84158-30.26732-13.59508-15.22991-8.34037-26.31773-13.79527-28.68658-14.113-5.15684-.69167-10.48936 1.92575-13.37403 6.56454l-2.26576 3.64354v171.5c0 169.70437.0209 171.53546 2 174.8869 2.8097 4.7581 7.90622 7.34746 13.35435 6.78488 3.4537-.35663 7.32568-2.44615 18.71985-10.10221 7.90103-5.30893 15.76051-10.13889 17.46551-10.73326 3.91623-1.3652 11.16986-.58424 14.43315 1.55395 3.46308 2.2691 112.44228 115.84795 114.93704 119.78816 2.55767 4.03956 2.65212 12.02029.19738 16.67825-3.38855 6.4299-25.2992 27.74032-35.99647 35.01038-20.91369 14.21331-44.13886 24.62469-58.61081 26.27405-9.48961 1.08153-53.21883 2.34797-54 1.56389z" fill="#d9d9d9"/><path d="m186.5 719.4633c-.55-.20834-5.95-.82868-12-1.37853-29.13091-2.64754-51.85687-13.36109-66.52164-31.35986-13.44262-16.49877-42.480243-83.1097-56.33286-129.22491-20.171669-67.15126-28.954155-126.69468-28.983193-196.5-.031274-75.17908 11.084461-143.37164 35.046095-215 12.646766-37.8049 34.143377-86.583517 45.577138-103.420473 12.25518-18.046559 31.05167-30.508525 55.27408-36.6464108 14.16542-3.5894749 24.3777-4.8382674 45.94038-5.61775078 33.48957-1.21063609 60.39078 3.87290838 88.00377 16.63014758 10.5599 4.878686 26.44123 14.189285 30.93879 18.138194 4.23983 3.722628 7.05852 10.640339 6.17203 15.147634-1.01088 5.139771-87.40632 148.483389-91.06724 151.094869-2.38136 1.69871-4.4679 2.17228-9.54735 2.16688-6.46988-.007-6.61559-.0706-31.44852-13.75-26.86931-14.80118-28.86017-15.46615-35.56708-11.87999-1.91642 1.0247-4.3844 3.3872-5.4844 5.25-1.97596 3.34619-2.00314 5.42254-2.2614 172.73771-.18535 120.08183.0564 170.53117.8311 173.40802 2.11912 7.86984 9.88784 12.3174 17.45732 9.99426 1.81421-.5568 9.81585-5.39151 17.78142-10.7438 15.68261-10.53759 19.74679-11.96629 27.11895-9.53325 2.89085.95406 15.531 13.56183 59.86858 59.71517 30.91222 32.17816 57.08796 59.89394 58.16832 61.59062 2.46379 3.86933 2.57369 11.96364.22293 16.42026-.92897 1.76115-7.65112 9.24451-14.93812 16.62969-14.8805 15.08099-26.98545 23.75565-46.20037 33.10818-16.65353 8.10581-26.85199 11.16639-41.54873 12.46884-11.59114 1.02724-44.22473 1.41638-46.5.5545z" fill="#d5d5d5"/><path d="m178.5 718.80414c-14.60845-1.43302-33.57428-6.19274-43.17441-10.83515-10.82424-5.23438-21.53893-13.89985-28.48189-23.03467-3.10778-4.08887-9.236414-14.63432-13.619195-23.43432-60.951364-122.38165-83.085313-258.55121-64.124779-394.5 9.81807-70.39647 32.311316-142.89153 63.916206-206 7.435198-14.846563 12.875068-22.824399 21.078538-30.912718 12.28688-12.114415 25.69483-19.397823 44.46515-24.1541658 14.22869-3.6055056 24.34529-4.8207768 46.44038-5.57871619 30.56258-1.04840395 53.97965 2.86312729 79.41863 13.26589799 15.70254 6.421245 36.45467 18.133651 40.79323 23.023511 3.08397 3.47585 5.00033 9.41158 4.27934 13.254813-.53714 2.863172-81.01758 138.922498-87.41553 147.783698-3.01451 4.17512-8.74805 6.59594-14.41846 6.08778-4.30644-.38593-9.11642-2.65288-29.15721-13.74183-18.34168-10.1488-25.06094-13.38096-28.5-13.70934-6.27523-.59919-10.88617 1.9638-13.75 7.64296l-2.25 4.46189.022 169.53811c.0214 165.01993.0731 169.65082 1.94186 173.76745 3.38755 7.46243 11.99104 10.40807 19.33584 6.62015 1.76019-.90777 9.11545-5.69428 16.34503-10.63667 11.22452-7.67347 13.86992-9.05585 18.10926-9.4632 9.28993-.89264.49198-9.3028 114.3273 109.2879 13.48023 14.04336 15.03701 17.33389 12.40073 26.2112-2.1798 7.34018-24.8836 30.35051-38.98198 39.50827-20.65491 13.41664-43.56955 23.34789-57.48993 24.91625-12.33438 1.38967-49.85219 1.77449-61.51007.6309z" fill="#d1d1d1"/><path d="m187.5 719.4633c-.55-.20834-5.95-.82868-12-1.37853-11.34954-1.03149-25.7311-4.26957-35.70726-8.03966-7.75998-2.93257-19.38549-10.68134-26.10187-17.39772-8.13043-8.13043-12.93191-15.78242-23.268281-37.08202-38.237803-78.79459-60.021052-160.6184-66.439636-249.56537-2.198155-30.46141-1.291615-80.76749 2.045324-113.5 8.053911-79.00198 31.844117-161.26303 66.950672-231.5 7.650361-15.305913 12.937671-22.745175 22.842571-32.13956 14.19275-13.461232 26.75804-19.5820549 49.85019-24.2830943 39.37667-8.0162036 80.68887-5.54607232 112.88182 6.7494093 19.94899 7.619136 44.774 21.874754 48.35906 27.769907 3.08459 5.072195 3.43897 9.320156 1.19982 14.382129-2.94229 6.651536-83.96558 141.556299-87.00266 144.860489-3.66329 3.98548-7.31342 5.66072-12.33393 5.66072-3.66516 0-8.12663-2.07582-29.29966-13.63243-18.91228-10.32265-26.08919-13.74869-29.56056-14.11131-5.56282-.5811-9.78319 1.34697-13.08676 5.97865l-2.32884 3.26509v172.54398c0 164.62283.0828 172.6704 1.80433 175.29774 3.06758 4.68171 7.50681 6.82031 13.27603 6.39574 4.46349-.32847 6.62688-1.42972 17.81682-9.06943 15.07808-10.29425 19.48959-12.66803 23.54275-12.66803 7.72999 0 8.92519 1.09555 66.23256 60.71035 30.43013 31.65537 56.3377 59.18297 57.57239 61.17243 2.68981 4.33415 3.00433 11.73611.70462 16.58239-.85277 1.79709-7.26527 9.13902-14.25 16.3154-14.63768 15.03933-26.5654 23.51766-47.48216 33.7508-16.86594 8.25135-26.24739 11.03797-41.71734 12.39152-11.65051 1.01936-42.25448 1.39102-44.5.54041z" fill="#cbcbcb"/><path d="m187.5 719.4633c-.55-.20834-5.95-.83286-12-1.38781-25.86493-2.37255-45.29409-10.23631-60.14475-24.34298-9.57445-9.09479-14.62851-16.83455-24.792735-37.96744-39.392825-81.90338-60.812609-163.45803-66.633794-253.70452-1.510294-23.41425-.662444-81.68924 1.499441-103.06055 8.182442-80.88755 27.515997-151.64525 61.467962-224.962828 10.392911-22.442977 15.870976-31.480822 24.971916-41.199281 17.13905-18.301985 38.11113-27.2982353 72.97708-31.3044803 31.83122-3.6575421 62.37068-.85398308 88.65488 8.138623 19.08766 6.5304583 49.15289 22.8161953 53.02176 28.7208353 2.66751 4.071126 3.51276 9.478486 2.11545 13.533232-2.12495 6.166234-86.41175 145.706399-89.6648 148.443659-3.4516 2.90433-8.5787 4.15898-13.21025 3.23267-1.7419-.34838-14.24761-6.70145-27.79045-14.11792-21.36451-11.69986-25.2224-13.48451-29.14965-13.48451-5.55461 0-10.59499 3.09273-13.07051 8.01993-1.6441 3.27239-1.74853 13.64179-1.75 173.76219-.002 184.73115-.33158 173.8831 5.45014 179.21788 2.28109 2.10476 3.68658 2.5 8.89013 2.5 6.17794 0 6.18749-.005 21.34407-10.19055 9.08136-6.10312 16.63614-10.46684 18.8352-10.87938 6.25595-1.17363 11.23426 1.08375 18.58914 8.4291 18.09545 18.07201 105.20704 109.51953 107.38759 112.73275 3.14805 4.63892 3.37924 11.81757.55386 17.19792-1.07157 2.04059-7.48407 9.38738-14.25 16.3262-13.35712 13.69845-25.17564 22.29178-43.61367 31.71178-17.12997 8.75171-27.64548 12.10518-43.05506 13.73053-12.11578 1.27794-44.01417 1.89695-46.63295.90495z" fill="#c3c3c3"/><path d="m177.97104 718.46321c-30.29951-3.30451-50.55805-11.83787-65.51411-27.59604-8.20422-8.64421-8.92842-9.78831-19.222218-30.36717-37.339907-74.64816-58.960115-150.90103-67.906166-239.5-2.233476-22.11967-2.54875-91.53289-.517786-114 7.970118-88.16775 30.154371-168.27391 67.295366-243 10.625474-21.377998 16.077904-28.939234 28.224594-39.140886 6.75565-5.673865 18.76041-12.568702 26.85813-15.4257451 7.968-2.8112724 26.27004-6.5784927 38.81115-7.9887353 32.16779-3.6172531 64.1864-.2663707 91 9.5235334 12.2152 4.459886 29.07944 12.896145 39.57179 19.795605 10.04303 6.604007 12.42821 9.938853 12.42821 17.376574 0 3.93984-4.01252 11.027605-43.70823 77.206804-32.17099 53.63428-44.62256 73.56611-47.17215 75.51078-2.79178 2.12939-4.54629 2.64073-9.04178 2.63516-5.2839-.007-6.90781-.73772-30.81537-13.87486-25.21564-13.85593-25.24232-13.86756-30.75769-13.41018-4.02154.33349-6.23176 1.11396-8.14135 2.87486-5.67845 5.2363-5.36343-5.27248-5.36343 178.91709 0 186.02849-.39982 173.96145 5.94075 179.29669 2.62254 2.20672 4.20377 2.70331 8.60789 2.70331 5.18795 0 5.98808-.39838 20.83015-10.37124 9.01836-6.05972 16.92254-10.65031 19.01327-11.04253 4.99628-.93731 10.61523.82097 14.87471 4.65459 9.95416 8.95894 111.19018 115.69824 112.36861 118.47706 1.92947 4.54984 1.69364 9.971-.64379 14.7995-2.95734 6.10904-27.58575 29.77098-38.49159 36.98109-11.118 7.35038-28.58725 16.20812-40.22404 20.39549-15.73373 5.66162-49.97072 7.65942-78.30492 4.56925z" fill="#bbb"/><path d="m178 718.41199c-21.68537-2.50408-41.11256-8.60248-52.72956-16.55233-13.17788-9.01802-20.68525-18.62783-31.529748-40.35966-40.660129-81.48086-64.434191-170.79083-69.706643-261.86093-6.73469-116.32707 17.71798-235.27695 69.717222-339.13907 8.749779-17.476615 15.819519-26.846715 27.129489-35.956892 12.24706-9.865008 23.23011-14.8976537 41.41092-18.9752767 31.15648-6.9878301 68.55681-7.2449041 94.39118-.6488048 28.94186 7.3895125 64.72364 25.3424775 70.30602 35.2749735 4.61142 8.204921 5.69315 5.992919-41.22791 84.306-23.3967 39.05-43.49413 72.20213-44.66096 73.6714s-4.19126 3.46184-6.72094 4.42793c-6.57778 2.51208-9.18257 1.56366-35.76741-13.02314-12.58859-6.90722-24.37893-12.97015-26.20076-13.47318-6.42871-1.77505-12.99225 1.02812-16.33548 6.97659l-2.07542 3.69271v171.21272c0 189.51424-.48597 175.76272 6.35646 179.87075 7.94197 4.76816 11.24667 3.81572 29.72903-8.56814 15.32103-10.26566 19.1243-11.76722 25.64573-10.1251 5.03881 1.26879 4.81881 1.0514 74.22063 73.33746 23.76246 24.75 44.06931 46.66957 45.12632 48.71016 2.30039 4.44099 2.45754 9.57194.44099 14.39823-2.54868 6.09984-25.67248 28.68587-37.43667 36.56603-12.38256 8.29438-30.13806 17.37401-42.59007 21.7793-15.96834 5.64929-50.14874 7.61575-77.49242 4.45827z" fill="#b3b3b3"/><path d="m178.5 718.40615c-32.86221-3.60536-54.66285-13.61533-70.08013-32.17798-7.88918-9.49869-26.325262-47.10329-39.087642-79.72817-57.294446-146.46362-61.4597391-308.47772-11.77574-458.03167 9.727722-29.28145 24.586143-65.175531 37.206067-89.880188 18.511715-36.238384 42.680825-51.2643176 91.750115-57.0410468 45.91065-5.4048754 87.85303 3.6807843 127.22224 27.5591918 15.39496 9.337421 18.43615 16.246179 12.21703 27.753736-1.67643 3.101987-21.58893 36.464977-44.25 74.139977-39.90871 66.34994-41.34318 68.57258-45.70194 70.81241-3.21998 1.65464-5.58388 2.17719-8.31048 1.83704-2.36505-.29504-13.36559-5.69319-29-14.2308-21.86187-11.93828-25.79434-13.75859-29.76786-13.77935-5.72223-.0299-10.57453 2.6994-13.05856 7.3451-1.79668 3.36018-1.8631 9.59938-1.8631 175.0156 0 194.6866-.862 176.23852 8.45364 180.92125 4.40053 2.21203 5.20688 2.3169 9.33196 1.21361 2.59356-.69367 9.66474-4.74972 16.61481-9.53029 6.65477-4.57746 13.53974-9.06108 15.29993-9.96361 4.36068-2.23592 12.02394-2.1065 15.91939.26886 4.97092 3.03115 113.65316 116.6675 115.60405 120.87367 4.22219 9.10317 1.58787 14.49665-15.42919 31.58962-14.47658 14.54114-24.15683 21.56849-42.74933 31.03372-17.84168 9.08301-27.93167 12.34415-43.55076 14.07586-16.14987 1.79057-38.25657 1.75979-54.9945-.0765z" fill="#ababab"/><path d="m180 718.51069c-35.91065-4.17772-57.97028-14.5128-72.88347-34.14638-9.143597-12.03777-30.579636-57.87103-42.985884-91.90987-38.742725-106.29782-50.137761-218.82227-33.514827-330.95444 10.01433-67.55297 30.883034-134.51334 61.410255-197.044018 8.550156-17.513776 13.772506-25.316933 23.070746-34.471923 12.77039-12.573663 26.70594-19.626592 48.31878-24.4546604 40.8785-9.1318009 81.72075-6.6418457 116.95922 7.1304384 18.64834 7.288353 41.49241 20.474559 45.93632 26.515671 1.08247 1.47153 2.16904 4.84653 2.4146 7.5l.44646 4.824492-43.07896 72c-23.69343 39.6-44.42555 73.44337-46.07138 75.20749-3.65934 3.92236-9.66662 5.76072-14.4808 4.43146-1.88536-.52057-14.22654-6.86374-27.42486-14.09592s-25.53622-13.39921-27.41756-13.70451c-4.81361-.78114-12.08917 2.61327-14.66823 6.84345-2.00987 3.29661-2.02296 4.43035-2.02667 175.61769-.004 189.69455-.48672 175.58405 6.16731 180.32214 2.30412 1.64068 4.64985 2.29331 8.37051 2.32884 4.88362.0466 5.90891-.44801 18.55284-8.95064 7.36096-4.95 14.73852-9.76864 16.39458-10.70808 3.72373-2.11239 11.66063-2.28303 15.43385-.33182 4.03553 2.08685 113.12303 115.80599 115.82717 120.74496 4.80127 8.76926 2.46833 14.15946-13.23006 30.56776-9.1793 9.59441-14.373 14.0316-23.79811 20.33173-12.51647 8.36653-31.05973 17.88103-43.31642 22.22557-14.31377 5.07369-49.65825 7.05957-74.40541 4.18057z" fill="#a5a5a5"/><path d="m178.6981 718.33745c-15.36263-1.84524-33.15717-6.38545-42.63848-10.87905-9.78556-4.63779-20.59489-12.95113-26.98797-20.75614-8.19196-10.00116-23.503613-40.64853-36.933743-73.9255-65.9427675-163.39201-65.0162489-346.74743 2.575968-509.77676 7.844215-18.919887 23.863244-52.053103 28.358875-58.656546 4.84877-7.122141 16.57551-18.986529 23.30842-23.581998 23.626-16.1256662 68.0753-24.0510795 108.29152-19.3086261 27.54552 3.2482763 55.30807 13.1356031 80.05524 28.5107951 10.61026 6.59206 13.77207 10.617963 13.77207 17.535827 0 5.016362-1.16194 7.091277-43.1632 77.077838-23.73975 39.55749-44.43975 73.11828-46 74.57954-3.28674 3.07823-8.84072 4.83553-12.96254 4.10141-1.58084-.28156-14.12167-6.64235-27.8685-14.13508-22.66661-12.35448-25.46041-13.62316-30-13.62316-5.81018 0-10.50204 2.76786-13.27085 7.82884-1.62748 2.97479-1.73491 13.79127-1.73491 174.67116 0 160.69378.10901 171.69922 1.73002 174.6617 3.56894 6.52243 10.70534 9.61443 17.42817 7.55113 1.88634-.57893 9.87703-5.41241 17.75707-10.74105 15.46919-10.46057 19.62403-11.93404 26.88975-9.53613 2.72897.90064 16.35853 14.50422 59.36857 59.25539 30.70453 31.94751 56.71035 59.45647 57.79071 61.13101 2.42346 3.75637 2.58749 11.90023.32584 16.17795-.87237 1.65-7.36952 8.90981-14.43813 16.13291-9.86715 10.08281-15.39627 14.79362-23.80699 20.28354-12.75485 8.32547-29.31692 16.6291-41.95291 21.03369-16.30653 5.68406-49.24508 7.58818-75.894 4.38731z" fill="#9b9b9b"/><path d="m180.5 718.46182c-32.76776-3.88555-51.39446-11.46681-66.87253-27.21781-7.83573-7.97389-10.42873-11.97616-19.594575-30.24401-60.625097-120.82795-83.250652-260.44921-63.928527-394.5 10.330881-71.67238 32.202677-142.11404 63.651507-205 7.874295-15.745653 10.686035-19.976073 19.182775-28.861501 14.4418-15.102444 27.82545-21.997356 53.57343-27.5996448 53.03101-11.5385777 105.57574-2.4133162 149.29391 25.9273558 7.96966 5.166402 9.60069 6.698916 11.35828 10.672245 1.34976 3.051368 1.86692 5.781916 1.51076 7.9767-.53491 3.296237-83.8661 143.553495-88.06796 148.229855-3.55318 3.95443-7.43354 5.42044-13.02064 4.91922-4.22857-.37935-9.13419-2.70837-29.08643-13.80925-22.75718-12.66147-24.29396-13.35558-29.67667-13.40396-6.48747-.0583-10.01919 1.94396-13.32333 7.55351-1.97903 3.35986-2 5.19396-2 174.89547s.021 171.53561 2 174.89547c2.79771 4.74976 6.52808 7.24065 11.72005 7.82587 5.49726.61962 7.20866-.22041 24.44974-12.00087 11.21981-7.66626 13.90115-9.06891 18.10925-9.47326 3.3503-.32192 6.04875.0518 8.38734 1.1615 3.95111 1.87493 112.66974 114.50434 116.03642 120.21044 2.5823 4.37668 2.76175 10.54904.44836 15.42235-2.79545 5.88883-26.09489 28.86346-35.65116 35.15416-16.04434 10.56167-36.12778 20.45995-49.25704 24.27673-14.42871 4.19454-47.16214 5.60775-69.24296 2.98943z" fill="#939393"/><path d="m184.5 718.9191c-18.2172-2.15457-36.93781-6.36895-45.90249-10.33356-12.73559-5.63228-26.21734-16.78313-33.87732-28.02017-8.351506-12.2515-29.432839-58.44498-40.350186-88.41545-55.5478432-152.49081-54.268292-320.47065 3.592694-471.64992 10.245575-26.769653 27.731177-64.680177 34.618532-75.056414 12.01217-18.097104 31.5791-32.241573 51.73194-37.3958022 53.57685-13.7026521 98.5941-9.6514642 143.68683 12.9306522 14.20975 7.116142 26.57006 15.282273 28.32333 18.712479 2.4572 4.80743 2.8933 8.854857 1.35164 12.544566-1.50338 3.598083-79.80185 135.052169-84.93141 142.590029-3.85233 5.66096-8.08129 8.16606-13.79339 8.17075-3.96972.003-7.73102-1.74566-29.5-13.71685-23.69975-13.03297-25.23467-13.72207-30.62684-13.75-6.13859-.0318-9.36429 1.63576-13.26154 6.85571l-2.06179 2.76154v172.85334 172.85334l2.09195 2.82333c3.91906 5.28923 8.34207 7.54698 13.90805 7.09944 4.3237-.34765 6.82601-1.62404 18.5-9.43659 7.425-4.96901 14.94015-9.77818 16.70034-10.68704 4.42187-2.28321 10.08093-2.04482 14.57473.61397 4.48463 2.65337 113.08982 115.6047 115.33954 119.95518 2.08524 4.03241 1.95993 10.75723-.28128 15.09486-1.00833 1.95152-7.25731 9.12348-13.88662 15.93768-9.07808 9.33126-14.87878 14.26991-23.5 20.00765-12.50657 8.32358-32.16104 18.21716-43.94671 22.1217-14.11638 4.6767-48.21638 6.93456-68.5 4.53558z" fill="#8b8b8b"/><path d="m180.53154 718.37145c-31.51844-4.03566-49.84068-11.15165-64.62613-25.0995-9.0743-8.56023-14.27215-16.56869-24.343657-37.50688-36.037197-74.91967-56.631974-148.1974-65.13779-231.76507-2.143669-21.06104-3.035137-83.41119-1.509221-105.55635 5.163902-74.94218 21.455595-145.39226 49.359181-213.44365 8.204992-20.010369 21.057084-47.347429 26.466537-56.295684 9.60612-15.890328 25.59499-29.832408 41.94313-36.573837 14.56256-6.00512 40.48124-10.9112476 62.31641-11.79582926 36.62841-1.48388204 73.83817 8.47405516 107.72525 28.82902526 4.52388 2.717366 9.57037 6.285787 11.2144 7.929826 3.78231 3.782309 5.34836 9.137698 4.05739 13.874971-1.45493 5.338931-87.02034 147.072498-90.17255 149.364988-1.47153 1.0702-4.95738 2.16507-7.74634 2.43305-4.97283.47783-5.5703.21424-30.91589-13.63963-22.43231-12.26147-26.44069-14.12688-30.35578-14.12688-5.01122 0-9.72302 2.61119-13.21453 7.32323l-2.09195 2.82323-.29437 170.67677c-.1961 113.70469.0455 171.85455.72375 174.20515.55996 1.94062 2.62992 5.09062 4.59991 7 3.32068 3.21854 4.04277 3.47162 9.90533 3.47162h6.32354l13.5962-9.2907c19.2603-13.16114 22.60175-14.25462 30.43359-9.9593 4.24501 2.32814 111.8181 113.53871 115.34958 119.25 2.45498 3.97033 2.42443 11.4986-.0661 16.28984-3.25506 6.26198-26.45882 28.33466-37.57141 35.73997-12.10807 8.06869-30.74404 17.32944-43.13503 21.43505-17.02878 5.64228-48.37219 7.53863-72.83343 4.40659z" fill="#838383"/><path d="m185 718.97051c-43.13446-5.2389-65.67951-16.38803-80.96662-40.04016-5.393877-8.34538-17.231952-32.57503-26.349177-53.93035-27.312599-63.97442-44.171883-130.4443-51.234865-202-2.203489-22.32375-3.046246-78.35513-1.534694-102.03543 5.862482-91.8429 29.15498-179.11587 69.140494-259.057488 13.709972-27.409867 27.500232-41.190939 50.376372-50.342839 13.35871-5.3443262 40.12426-10.3933336 59.56849-11.23690018 37.42434-1.62361402 80.31202 10.13311218 111 30.42824418 10.53097 6.964529 12.2379 9.068026 12.79331 15.765514l.45913 5.536481-43.80539 73.030688c-30.61729 51.04401-44.72989 73.69018-46.87622 75.22121-2.26582 1.61629-4.51263 2.19052-8.57083 2.19052-5.18967 0-6.92412-.78287-30.73942-13.87471-24.95355-13.71756-25.2998-13.8697-30.56971-13.43268-6.41456.53195-9.94734 2.86546-12.67634 8.37311-1.99558 4.02749-2.01453 5.66816-2.01453 174.43428 0 170.27037.001 170.37102 2.07095 174.64657 2.72669 5.63259 7.2106 8.35343 13.76634 8.35343 4.81482 0 5.97945-.58813 20.74405-10.47571 8.84873-5.92583 17.15619-10.75963 19.12721-11.12939 6.86296-1.2875 10.21931.75754 23.56937 14.36095 40.92174 41.69833 101.12299 105.21988 102.3188 107.96203 1.96889 4.51488 1.74623 9.94223-.60732 14.80402-2.94062 6.07451-26.60324 28.77665-37.4894 35.96767-19.18803 12.67495-41.3899 22.30203-57.82341 25.07313-10.94238 1.84517-43.12579 2.68926-53.67659 1.40781z" fill="#7b7b7b"/><path d="m189 719.38875c-43.13082-5.25371-64.05173-14.05515-80.01859-33.66384-8.79877-10.80566-28.319541-51.38428-41.491513-86.25008-24.332006-64.40607-38.271884-129.86754-42.584202-199.97483-2.110069-34.30433-.270188-88.51373 4.157679-122.5 9.86193-75.69562 32.206917-149.6838 64.931613-215 9.556953-19.075015 15.809443-27.45263 27.530843-36.88819 14.09747-11.348254 29.06461-17.0615089 58.4736-22.3205275 16.24253-2.90454621 45.34023-3.11302799 60.00057-.4298974 25.14737 4.6024639 46.90225 12.2413369 66.16503 23.2327789 18.24301 10.40956 21.82704 14.088468 21.82802 22.405836.00049 4.154216-3.36543 10.109378-43.8038 77.5-39.23309 65.382-44.21576 73.23917-47.74679 75.29185-7.02933 4.08632-9.90473 3.16478-37.89263-12.14434-22.5095-12.31248-25.43261-13.64751-29.88197-13.64751-6.21257 0-11.03392 2.83705-13.69895 8.06093-1.93584 3.79456-1.96891 6.73319-1.96891 174.93907 0 170.23363.0101 171.09945 2.04034 175.07907 2.7358 5.36262 7.12448 7.91249 13.62661 7.91719 4.89482.004 6.02073-.56054 21.37805-10.71055 15.40359-10.18058 16.47114-10.71428 21.43153-10.71428 3.22509 0 6.21012.64846 7.80973 1.69657 4.0043 2.62371 112.98513 116.37683 114.96374 119.99801 2.12898 3.89638 2.2485 9.60516.29879 14.27147-2.51286 6.01411-26.7206 29.40636-38.04879 36.76704-20.42299 13.27017-41.58086 22.45154-58 25.16886-9.57881 1.58527-41.93241 2.83717-49.5 1.91537z" fill="#737373"/><path d="m190 719.38998c-23.26444-2.84203-43.64923-7.63877-54.36404-12.79239-9.90273-4.76302-20.40856-13.17492-27.0409-21.65133-11.349354-14.50497-34.12316-64.22423-48.070415-104.94626-55.4601122-161.92779-47.675882-336.53517 22.001865-493.521903 16.036259-36.130327 24.57263-49.492191 39.1622-61.300061 14.15216-11.453859 26.46282-16.2361282 55.81129-21.6807689 46.53269-8.6326068 92.70001.3482997 135.88592 26.4338279 12.29628 7.427304 15.46151 11.810476 14.35546 19.879306-.34724 2.533171-14.17655 26.463462-44.12258 76.349909-42.12321 70.17214-43.76464 72.73188-47.93354 74.75-7.66388 3.71003-8.50856 3.41013-40.68526-14.44477-17.61207-9.77296-20.0809-10.86028-25.5-11.23066-5.06188-.34597-6.53135-.0446-9.39839 1.92752-1.86911 1.28568-4.23161 3.90558-5.25 5.822-1.78139 3.35225-1.85161 9.98335-1.85161 174.84887 0 156.19089.14405 171.66804 1.62685 174.7928 3.16379 6.66719 10.65168 10.18383 17.66376 8.29568 2.11951-.57073 10.05038-5.25018 17.62414-10.3988 17.33531-11.78445 21.64812-13.03836 29.81397-8.66813 3.05855 1.63688 112.52622 115.90687 114.47936 119.50154 2.08676 3.84056 2.25793 9.59256.41661 13.99947-2.41216 5.7731-26.97346 29.64597-37.61847 36.56406-20.82359 13.53304-42.31969 22.75527-59.76223 25.63912-9.32475 1.5417-39.90911 2.72702-47.24399 1.83097z" fill="#6b6b6b"/><path d="m190 719.38435c-31.70443-3.96865-49.29303-8.95654-63.13131-17.9032-12.913-8.34846-21.45574-18.7204-30.870932-37.48115-39.3613-78.4315-62.23705-160.4332-70.160146-251.5-1.669149-19.18493-1.674281-84.22046-.008087-102.5 7.970808-87.44646 27.293514-160.51788 62.222119-235.301327 11.484462-24.588663 15.614436-31.356151 25.279236-41.42323 16.67281-17.366787 29.83925-23.3278356 67.16912-30.4105331 17.9749-3.41042629 44.68393-3.21010947 63.7222.4779143 25.20677 4.8829659 51.71505 15.3200928 71.24887 28.0528758 9.60868 6.26326 11.65946 8.839441 12.26808 15.411142.43125 4.656492.101 5.251763-42.27131 76.193158-23.48827 39.325-44.08244 72.95402-45.76481 74.73116-3.63805 3.84299-8.68629 5.7214-13.04255 4.85302-1.73826-.34651-14.40937-6.78124-28.15802-14.29941-21.81995-11.93178-25.57984-13.66939-29.57834-13.66939-5.23817 0-10.17134 2.48442-13.31959 6.70795l-2.10453 2.82333v173.85334 173.85334l2.05854 2.82333c1.1322 1.55283 4.0572 3.86131 6.5 5.12994 6.91303 3.5902 10.25045 2.59392 25.43044-7.59139 7.14394-4.79337 14.34394-9.48386 16-10.4233 3.50213-1.98669 11.28266-2.30872 14.9882-.62036 3.60471 1.64241 112.52338 115.09453 115.27282 120.07074 4.87804 8.82875 2.44468 14.25008-13.86648 30.89337-13.35014 13.62197-23.07855 20.79679-41.15772 30.35431-23.57601 12.46342-39.30854 16.40785-67.7258 16.98009-9.625.19382-19.075.15525-21-.0857z" fill="#636363"/><path d="m190.5 719.3851c-7.48042-.78043-27.9704-4.4378-36.5-6.51509-16.83694-4.10046-33.20793-13.90075-43.94621-26.30786-7.32556-8.46402-17.757771-28.5041-31.564109-60.63404-71.9465297-167.43309-72.3819995-358.17992-1.202962-526.92811 7.680201-18.20789 20.794222-45.228836 25.470671-52.48137 6.15992-9.553174 16.17013-19.670302 25.74261-26.017563 13.07844-8.671967 21.78902-11.6541429 50-17.1181176 17.8522-3.45765928 43.90974-3.91721675 60-1.0581752 29.49929 5.2416609 55.34964 15.1307138 78.21087 29.9195648 8.3567 5.405922 10.42959 8.140469 11.03896 14.562503.44269 4.665476.19065 5.117836-42.73073 76.693158-23.74682 39.6-44.35679 73.24468-45.79994 74.76595-3.03232 3.19647-8.90797 5.07861-12.93169 4.14238-1.53311-.35672-13.92093-6.7118-27.52849-14.12241-15.06475-8.20418-26.21117-13.65704-28.5-13.94228-4.88836-.6092-11.93364 2.93871-15.00091 7.55424l-2.25807 3.39789v172.40177c0 149.41044.19525 172.77935 1.46408 175.233 3.67669 7.10994 12.74276 10.7089 19.60958 7.78444 1.88449-.80257 9.84204-5.79177 17.68345-11.0871 13.25472-8.95096 14.60484-9.62788 19.20295-9.62788 2.72021 0 6.05954.50744 7.42073 1.12764 3.73773 1.70302 114.58938 117.55673 116.22367 121.46813 3.49416 8.36271.91212 13.53101-14.74808 29.52022-8.87688 9.06339-15.17234 14.46484-22.35638 19.1816-21.26152 13.95946-41.17538 22.68865-58.97373 25.85098-10.66009 1.89403-38.76441 3.20282-48.02627 2.23653z" fill="#5b5b5b"/><path d="m188 719.039c-12.11264-1.53039-29.46158-4.92756-38.30747-7.50114-15.63601-4.54908-26.42398-11.17869-37.51397-23.05374-6.23738-6.67892-8.39367-10.10796-16.558126-26.33152-14.354266-28.52329-24.867138-53.4504-35.038765-83.08054-54.8843099-159.87902-47.337521-334.62006 21.165438-490.07206 8.330717-18.904683 19.617733-41.003913 23.775623-46.551096 13.52513-18.044334 30.90952-29.35557 53.47727-34.7952354 23.96012-5.7752788 34.35997-7.14161079 53.5-7.02882572 15.93742.0939133 19.71882.45905862 33 3.18660142 25.95404 5.330154 50.68923 15.1909857 70.02244 27.9148677 10.17018 6.693365 13.24391 11.163778 12.18071 17.715537-.51097 3.14874-83.29818 142.937591-87.59711 147.910531-2.57986 2.98434-7.30016 4.96145-11.687 4.89514-3.29338-.0498-8.99295-2.73687-29.49316-13.90462-23.71595-12.91957-25.76139-13.83937-30.66584-13.79005-8.95959.0901-14.66711 6.15847-15.73756 16.73255-.34602 3.41803-.49263 80.9146-.3258 172.2146.28239 154.54488.4216 166.21605 2.0174 169.13088 3.74511 6.84068 10.89248 10.38317 17.86112 8.8526 1.77736-.39037 9.92223-5.23513 18.09971-10.76614 13.34807-9.02822 15.40271-10.09645 20.09663-10.44838 3.76319-.28215 6.13574.11566 8.46586 1.41951 1.78056.99634 28.43922 28.07418 59.24146 60.17298 59.68521 62.19754 59.16098 61.56376 57.46379 69.47223-1.13225 5.27602-2.46279 7.02964-15.44265 20.35312-13.86768 14.2348-25.19573 22.48576-43.77357 31.88313-22.62129 11.44272-38.18803 15.23507-65.22643 15.89041-9.075.21995-19.425.0303-23-.42134z" fill="#535353"/><path d="m191.5 719.38051c-6.71421-.71811-22.47553-3.40833-32.5-5.54725-18.14397-3.87138-31.38613-10.42058-42.73708-21.13658-7.57066-7.14718-12.94441-15.0145-20.284219-29.69668-37.497971-75.00903-59.793197-151.86608-68.460512-236-10.010367-97.17096 3.308925-202.33636 37.510943-296.17592 11.059879-30.34482 30.27238-72.906574 38.517438-85.328281 12.55459-18.91429 30.9174-31.530436 54.45343-37.4121579 33.82708-8.45348599 56.52807-9.8503966 82.5-5.0766551 29.5834 5.4375454 52.91057 14.484338 76.12847 29.524305 7.01119 4.541669 8.36777 5.892002 9.86939 9.823927 1.13984 2.98464 1.51092 5.695494 1.07479 7.851644-.36637 1.811226-20.12451 35.686618-43.90699 75.278648-33.9977 56.59788-43.981 72.48849-46.70327 74.3385-2.88326 1.95942-4.38233 2.27875-8.96239 1.90916-4.79049-.38657-8.59606-2.15503-29.5-13.70871-13.75318-7.60143-25.55129-13.47657-27.63341-13.7607-7.74191-1.05647-15.57526 4.42441-17.80646 12.45891-1.49634 5.38827-1.46096 337.25921.0365 342.77733 2.17437 8.01235 10.54764 13.53971 18.30609 12.08422 2.07439-.38916 10.04807-4.9598 18.84646-10.80309 13.34065-8.85995 15.87702-10.17711 20.25078-10.51636 3.55319-.2756 5.92402.13636 8.1933 1.4237 1.75632.99634 28.17946 27.85889 58.71809 59.69455 61.03807 63.63044 60.021 62.36914 57.54007 71.35807-1.91766 6.94806-23.36302 28.71394-37.86106 38.42693-19.56915 13.11038-41.17984 22.61052-58.91808 25.90059-10.38854 1.92686-37.64762 3.27713-46.67232 2.3119z" fill="#4d4d4d"/><path d="m189 718.94999c-18.45069-2.17451-41.24253-7.31348-50.40249-11.36445-12.54297-5.54709-24.27894-15.10425-32.2599-26.27076-4.945-6.91877-20.167289-37.72463-28.815443-58.31478-72.8447583-173.43409-70.6695805-366.26022 6.065764-537.720528 17.857409-39.901271 26.249109-52.022794 44.437889-64.189075 13.46615-9.007359 22.84681-12.0880595 56.97418-18.7108742 11.57405-2.24607944 39.01036-2.54750619 49-.5383344 3.575.719024 10.9964 2.2180288 16.492 3.3311217 20.99917 4.2532227 47.9028 15.3361879 65.65095 27.0449379 9.10258 6.005124 12.55913 11.226807 11.42689 17.262172-.47132 2.512352-62.20537 107.11897-85.79285 145.3736-2.86009 4.63855-7.35017 7.13874-12.82847 7.14324-3.96169.003-7.76058-1.75058-29.31649-13.53456-13.62075-7.44606-26.06917-13.79913-27.66315-14.11792-8.4386-1.68772-17.08939 4.22754-18.96927 12.97086-.802 3.73014-1.02855 52.61351-.80725 174.18536l.30764 169 2.20059 3.53809c3.25061 5.22629 9.32882 8.30963 15.2578 7.73993 3.97142-.3816 6.99861-1.96092 18.1539-9.47109 7.36324-4.95722 14.82786-9.75423 16.58805-10.66003 4.47694-2.30384 10.11275-2.06569 14.39381.60822 2.80737 1.75346 83.20465 84.59365 109.56612 112.89534 6.21482 6.67224 7.7784 11.20021 6.13951 17.7795-.97082 3.89739-3.06368 6.53455-14.21908 17.91708-18.07363 18.44164-37.241 30.92007-62.44736 40.65478-17.90111 6.91341-47.03672 10.05238-69.13334 7.44817z" fill="#494949"/><path d="m189.5 718.96678c-16.66385-1.76141-39.36535-6.80613-49.63568-11.03001-13.62704-5.60439-26.46563-16.05544-34.41786-28.01731-5.16457-7.76862-18.258805-34.42025-27.228181-55.41946-48.170765-112.77797-64.45881-238.64658-46.637794-360.40141 8.987362-61.40249 25.684949-119.15352 50.921104-176.118022 15.029983-33.926545 21.582951-45.272004 32.391001-56.080051 12.11664-12.116639 26.19267-19.808037 43.93662-24.0077594 41.4196-9.8033848 61.13769-10.0420003 98.17079-1.1879991 18.34046 4.3848995 37.13487 12.2925225 55.65491 23.4164325 13.17631 7.914237 17.23439 14.421306 13.92833 22.333819-.81818 1.958202-20.67753 35.539914-44.13187 74.62603-33.0952 55.15238-43.35041 71.49624-45.79781 72.98857-1.87144 1.14113-4.9794 1.92443-7.64448 1.92665-3.88595.003-7.8599-1.83776-29.5-13.66636-28.23488-15.43334-31.13302-16.35532-38.46239-12.23599-2.28003 1.28145-5.13577 3.92205-6.3461 5.868l-2.20059 3.53809v172.5 172.5l2.35077 3.78109c3.2588 5.24159 9.10163 8.07403 15.40578 7.46828 4.16401-.40011 6.89083-1.82885 18.07366-9.46984 15.96906-10.91132 18.55068-12.27953 23.16979-12.27953 7.08381 0 4.71961-2.25722 80.98084 77.31623 21.98947 22.94452 40.58947 42.87891 41.33334 44.29863 2.16965 4.14094 1.68243 10.86385-1.13455 15.65508-3.77425 6.41941-26.00984 27.55818-35.81074 34.0443-11.34995 7.51126-24.97661 14.62596-37.57511 19.61857-18.58955 7.36678-46.12246 10.53609-69.79378 8.03397z" fill="#454545"/><path d="m190 718.96395c-17.01699-1.88855-38.56115-6.54406-48.61837-10.50603-9.2567-3.6466-22.06484-12.23672-28.11385-18.8553-7.43251-8.13235-11.69445-15.10277-20.76753-33.96535-38.75622-80.57268-60.174103-160.96749-66.505564-249.63727-1.593502-22.3164-1.335429-72.88637.487364-95.5 5.87742-72.9155 21.647171-139.2402 48.951971-205.88308 8.840448-21.576893 22.745873-50.612718 28.117109-58.711149 9.1749-13.833359 23.28371-25.858858 38.02375-32.409146 10.23655-4.5489951 37.4587-10.5455587 57.54288-12.67568846 19.69608-2.08896814 45.97492 1.64198086 72.88224 10.34748346 18.40818 5.955719 46.51875 20.905643 52.3582 27.84543 3.16272 3.758675 4.08702 8.985777 2.33123 13.183471-.75979 1.816474-20.60361 35.388746-44.09738 74.605049-33.43738 55.8144-43.40844 71.72461-45.904 73.24626-6.83603 4.16822-9.73299 3.25349-37.10025-11.71458-27.87902-15.24796-30.92915-16.2412-38.31069-12.47542-2.26148 1.15372-5.12193 3.76221-6.42634 5.86028l-2.35077 3.78109v172.57303 172.57303l2.66076 4.02068c3.50056 5.2897 8.61953 7.70492 15.02569 7.08937 4.20051-.40362 7.04638-1.92026 19.81552-10.56019 9.16498-6.20127 16.35421-10.35971 18.65702-10.79172 8.36955-1.57014 7.63085-2.22564 67.16004 59.5958 30.4524 31.625 56.22423 58.85 57.27074 60.5 2.63523 4.15487 2.53717 11.94783-.20761 16.5-3.80114 6.30411-26.89605 28.28029-35.96602 34.2238-12.02697 7.88122-25.62258 14.96221-37.91614 19.74783-18.83979 7.33392-46.28635 10.51308-69 7.99232z" fill="#414141"/><path d="m190 718.93629c-48.72014-5.61426-71.97359-17.53294-88.1517-45.18264-5.704593-9.74962-20.116791-40.67733-27.844972-59.75365-27.420521-67.68508-43.196195-137.0139-48.082329-211.30578-1.512506-22.99711-.653052-82.60806 1.495034-103.69422 8.76138-86.00394 30.481523-162.41352 67.163593-236.275695 9.165984-18.456407 16.356744-28.132294 27.580704-37.112568 13.30904-10.648552 27.24791-16.2659006 51.11219-20.5981611 6.17511-1.1210144 13.70248-2.5951658 16.72748-3.2758919 7.02794-1.5815212 35.71534-1.58763187 43-.00916 3.025.6554704 11.03999 2.3594285 17.8111 3.7865735 16.64833 3.5089673 29.98083 8.2376275 46.6889 16.5592335 14.77685 7.359745 24.54303 13.706801 27.74613 18.032269 1.21593 1.641991 1.95615 4.319962 2.00024 7.236507.0661 4.371594-2.37387 8.702362-43.73305 77.623313-26.98525 44.96821-44.80327 73.67301-46.40819 74.76349-1.71631 1.16617-4.48163 1.76773-8.10513 1.76318-5.18379-.007-6.95096-.8042-30.73753-13.87486-24.98403-13.72866-25.29131-13.8635-30.59163-13.42395-6.64072.5507-11.22751 3.61851-13.76541 9.20679-1.79204 3.94596-1.86151 10.46175-1.86151 174.59893s.0695 170.65297 1.86151 174.59893c2.82335 6.21684 7.26904 8.90107 14.74216 8.90107 6.12564 0 6.20044-.0355 20.94053-9.93978 8.13611-5.46689 16.46882-10.38711 18.51714-10.93384 8.54902-2.28186 6.95174-3.68688 67.6099 59.47231 30.6478 31.91147 56.52166 59.23145 57.49747 60.71108 2.39234 3.62753 2.35245 11.75134-.0773 15.73567-1.02144 1.67499-6.94989 8.34295-13.17433 14.81769-8.63744 8.98476-14.15048 13.66615-23.28293 19.77065-12.53067 8.37602-29.09211 16.86475-41.51491 21.27889-16.86082 5.99109-45.18093 8.82627-65.16319 6.52362z" fill="#3b3b3b"/><path d="m190.5 718.95412c-8.76471-.90463-26.99352-4.28068-37.78596-6.99812-17.49589-4.40531-34.49669-15.24583-44.25689-28.2203-7.52942-10.00903-26.337902-48.83243-37.175573-76.7357-26.340744-67.81834-40.62417-132.68856-45.358035-206-1.493322-23.12647-.647762-79.40125 1.517581-101 8.649218-86.27377 30.982883-164.93344 67.574809-238 12.554368-25.068486 24.651428-37.766937 45.336308-47.590144 10.30933-4.8958795 35.74347-10.8217542 58.14776-13.54779053 8.45466-1.02871813 29.93777-.32786596 35 1.14181903 1.65.4790339 8.175 1.8366036 14.5 3.0168214 21.74922 4.0583114 48.29452 14.6794931 67.23992 26.9037251 8.90677 5.746962 11.75096 9.621294 11.75634 16.014405.003 4.075237-3.56217 10.382551-43.529 77.000004-26.19894 43.66885-44.6147 73.35752-46.25 74.56116-1.95735 1.44068-4.25539 1.99178-8.21726 1.97059-5.16978-.0276-7.00102-.85736-30.5-13.81941-24.80837-13.6843-25.04266-13.78717-30.5654-13.42013-6.86393.45616-11.42607 3.43816-14.02917 9.17002-1.79176 3.94536-1.86233 10.48849-1.88347 174.63704l-.02196 170.53811 2.25 4.45382c3.02208 5.98213 7.66791 8.96996 13.94754 8.96996 5.95487 0 7.11778-.58295 23.83921-11.95032 7.29351-4.9582 14.6973-9.28436 16.45287-9.61371 8.48476-1.59175 7.05399-2.86268 67.17515 59.67082 30.70938 31.94159 56.62273 59.49005 57.58523 61.21881 2.00681 3.60446 2.21272 9.90987.4549 13.92997-2.02309 4.62674-22.91319 25.88891-31.47282 32.03336-20.06581 14.40406-46.01342 26.40117-63.36584 29.29778-19.94972 3.33017-32.89784 3.96395-48.36624 2.36741z" fill="#353535"/><path d="m191 718.93629c-21.90413-2.52412-43.50263-7.65826-54.63314-12.98676-10.29381-4.92794-20.88063-13.33448-27.35572-21.72202-5.36855-6.95417-17.082566-29.36023-26.52064-50.72751-51.100502-115.68874-68.511432-241.2582-50.886666-367 9.915397-70.74022 32.105255-141.99967 64.147437-206 6.859309-13.700636 9.908089-18.203467 18.187379-26.861501 15.90586-16.63348 30.28645-23.192578 65.06135-29.6749889 18.01631-3.35843137 30.55637-4.28719848 42.25-3.12920413 35.60074 3.52546303 67.44922 14.14366203 94.51755 31.51190103 9.10981 5.845256 11.48869 9.357738 10.94039 16.153793-.3642 4.514129-4.51343 11.85078-42.69889 75.5-23.26252 38.775-43.24354 71.55526-44.40227 72.84501-3.38351 3.76613-7.48132 5.43244-12.02249 4.88877-2.76338-.33083-11.84622-4.78194-28.08429-13.7629-21.89036-12.10712-24.52741-13.31225-30-13.71001-5.0957-.37035-6.52521-.0793-9.48477 1.9311-1.91663 1.30194-4.49886 4.15387-5.7383 6.3376l-2.25353 3.97043.2383 172.57794.2383 172.57793 2.80169 3.67312c3.6443 4.7778 7.46349 6.67101 13.45748 6.67101 5.44292 0 8.46153-1.59162 26.03852-13.72931 6.35542-4.3887 11.74617-7.35573 14.08131-7.75025 8.09948-1.3684 8.13864-1.33341 66.78257 59.68152 30.16114 31.38056 55.84862 58.68513 57.08331 60.6768 2.57127 4.14775 2.90661 9.66618.87526 14.40336-.75893 1.76983-7.17143 9.10966-14.25 16.31072-14.12354 14.36794-24.80858 22.12136-43.13184 31.29792-15.57388 7.79964-24.69778 11.15485-36.2383 13.32623-18.9143 3.55878-34.30367 4.41283-49 2.7193z" fill="#313131"/><path d="m192 719.36593c-3.025-.22201-6.4-.80248-7.5-1.28992-1.1-.48745-6.03574-1.44018-10.9683-2.11719-11.18331-1.53494-28.2217-5.95891-35.70668-9.27114-11.89062-5.26179-25.15781-16.43627-32.25794-27.16972-6.920479-10.46185-22.695678-43.86513-33.22896-70.36083-24.286956-61.09208-39.219137-124.83561-45.364968-193.65713-1.79265-20.07425-2.36808-69.08836-1.068347-91 5.386308-90.80547 27.098576-174.99495 66.021793-256 9.559442-19.894625 13.473722-26.051067 22.467352-35.336991 15.73351-16.244836 32.07117-23.6127258 63.60605-28.6847803 5.775-.9288482 11.5635-2.1947661 12.86332-2.813151 3.30206-1.57093006 38.77599-1.42577111 40.36694.165181.64336.6433577 2.47155 1.1697413 4.06266 1.1697413 5.22215 0 22.97721 4.0626719 35.37065 8.093434 21.52103 6.999357 51.39342 23.248515 54.7802 29.797821 2.01109 3.889025 1.98206 9.370579-.071 13.408405-4.17449 8.210078-83.9536 140.52475-86.17795 142.92722-3.11827 3.36801-8.28557 5.16627-12.54767 4.3667-1.77238-.3325-14.00554-6.52327-27.18482-13.75727-20.95931-11.5044-24.66282-13.20917-29.55197-13.60311-6.74032-.5431-10.57181 1.14538-14.60865 6.43781l-2.80169 3.67312-.29434 171.57793c-.2031 118.38943.0332 172.71168.76235 175.2352 1.28322 4.44124 6.64442 9.36561 11.72313 10.7679 5.88913 1.62607 10.3799-.21731 25.56605-10.49441 7.63052-5.1639 15.54591-9.83919 17.58977-10.38954 6.30679-1.69824 10.69953.24853 18.77984 8.32282 21.88542 21.86913 105.44778 109.87952 106.78927 112.47367 2.12529 4.10986 1.99734 9.44257-.33477 13.95214-1.05528 2.04059-7.24278 9.18123-13.75 15.86809-8.91742 9.1636-14.54044 13.93168-22.8313 19.35997-20.84724 13.64934-44.96257 24.00532-59.5 25.55141-3.575.38021-6.96922 1.06034-7.54271 1.5114-1.18901.93518-29.15331 1.89468-37.45729 1.28522z" fill="#2d2d2d"/><path d="m192 719.32053c-3.575-.23437-6.9275-.85238-7.45-1.37333-.5225-.52096-2.26596-.9472-3.87436-.9472-4.63236 0-27.39605-4.85855-35.65474-7.60994-15.02018-5.00399-30.2541-16.566-39.29972-29.82712-7.171755-10.51398-24.595638-47.89802-35.917352-77.06294-38.224227-98.46622-52.508893-208.96865-40.7201-315 8.834788-79.4623 31.994194-157.96492 67.419602-228.529845 11.56898-23.044591 28.71194-39.079058 50.14258-46.900275 8.22954-3.0034093 35.63705-9.06988 40.97652-9.06988 1.63766 0 3.52696-.5493939 4.19845-1.2208753 1.57488-1.57488796 36.03084-1.65660467 39.39103-.093421 1.25845.58544 7.91309 2.0402217 14.78809 3.2328481 6.875 1.1926265 17.9 3.9650804 24.5 6.1610092 22.43404 7.464172 51.55949 23.267221 54.94377 29.811694 3.82466 7.396084 4.84832 5.346107-40.56135 81.228055-23.16467 38.70938-43.24899 71.89094-44.63182 73.7368-3.11519 4.15826-8.48496 6.52982-13.09222 5.78217-1.89023-.30675-14.67225-6.70277-28.40448-14.21338-22.09627-12.08519-25.51048-13.65567-29.68733-13.65567-7.28891 0-13.57377 4.14247-15.99996 10.54587-.74034 1.95399-1.06661 55.11211-1.06661 173.78212 0 142.13378.23004 171.51758 1.36403 174.23159 3.00856 7.2005 12.48305 11.86283 19.45106 9.57172 2.0267-.66639 9.75991-5.27947 17.18491-10.25128 7.425-4.97182 15.21937-9.63559 17.32081-10.36393 5.97114-2.06956 10.91208-.24751 17.77624 6.55527 16.31774 16.17179 106.29011 110.74652 107.95539 113.47762 2.4829 4.07202 2.47871 9.75512-.0107 14.47163-3.71834 7.04497-24.71046 27.33395-36.04178 34.83454-20.41646 13.51436-42.72495 23.27531-58 25.37758-4.675.6434-9.23385 1.55148-10.13077 2.01795-1.93263 1.00511-27.57765 1.90978-36.86923 1.30062z" fill="#292929"/><path d="m192.02593 719.3198c-3.56074-.23478-6.71074-.76841-7-1.18585s-4.65547-1.29715-9.70268-1.95491c-33.37336-4.34926-56.02402-16.42204-69.86103-37.23587-5.10643-7.68117-17.017461-31.96061-26.275255-53.55948-64.854236-151.30795-71.628381-321.00726-19.096368-478.38369 12.388674-37.11423 33.198303-84.69391 44.414943-101.551473 9.51045-14.293326 25.37164-27.104335 40.70167-32.874542 7.64771-2.8785908 24.56962-6.878964 36.29279-8.5796909 4.4-.6383253 9.05676-1.672905 10.34837-2.299066 3.27974-1.59000432 38.39634-1.46108614 38.93101.1429215.21301.6390177 1.81229 1.1654189 3.55395 1.1697803 5.39066.013499 26.03499 4.6986474 37.36991 8.4809511 12.56459 4.192629 33.52336 14.251771 44.35966 21.290384 8.18396 5.31581 10.9371 9.224517 10.9371 15.527711 0 2.8437-8.25159 17.233524-43.75 76.294944-27.71255 46.10749-44.78495 73.54314-46.57333 74.84415-1.89303 1.37715-4.36432 2.05362-7.5 2.053-4.12022-.00082-7.56877-1.58881-28.98324-13.34623-13.36861-7.33991-25.84913-13.77122-27.73449-14.29179-6.87635-1.89865-16.20521 2.89412-19.09491 9.81014-1.13406 2.71417-1.36403 32.19586-1.36403 174.86243 0 124.6882.30617 172.19497 1.11999 173.78212 2.14055 4.17459 7.33207 8.7289 11.10972 9.74611 6.42149 1.72913 10.16412.21307 26.3915-10.69061 14.77864-9.93024 15.66134-10.37124 20.75899-10.37124 3.91812 0 6.15861.59416 8.48449 2.25 5.54759 3.94945 112.38125 116.11784 113.78599 119.46788 3.44576 8.2175.99161 13.06126-14.63145 28.87821-14.36225 14.5405-26.55143 23.21831-45.51923 32.40641-15.64385 7.57795-24.31871 10.58854-34.60482 12.00953-4.61735.63786-9.12903 1.54141-10.02595 2.00788-1.93249 1.00504-27.5874 1.91018-36.8433 1.29989z" fill="#252525"/><path d="m192.25 719.31482c-3.9875-.22134-7.25-.83272-7.25-1.35863 0-.5259-1.06605-.95619-2.36901-.95619-3.54579 0-18.99484-2.76886-28.63099-5.13139-15.85461-3.88713-29.95381-11.80975-40.0385-22.49841-7.71455-8.17658-8.62183-9.62122-18.76894-29.88521-92.4974852-184.7194-93.3402474-407.18075-2.242648-591.98499 11.881838-24.103968 16.818728-31.140942 28.754288-40.985949 8.21336-6.774758 21.40473-13.704682 31.33446-16.461167 9.37419-2.6022657 32.0186-7.052884 35.88454-7.052884 1.60057 0 3.09042-.5408668 3.31078-1.2019263.51249-1.53747575 37.62169-1.62410189 38.61543-.090142.35782.5523481 3.57559 1.3284746 7.15059 1.7247255 9.6378 1.0682481 31.23531 6.8565488 43.08638 11.5474848 20.16019 7.979887 41.64704 20.830972 44.34887 26.524646 3.401 7.16708 4.33329 5.334714-42.19821 82.938222-26.94576 44.93914-44.79129 73.71057-46.4831 74.94231-1.83308 1.33459-4.3266 1.99867-7.5 1.99741-4.21963-.002-7.56378-1.53873-29.75394-13.67561-13.75-7.52055-26.42222-13.95443-28.16048-14.29752-6.24789-1.23316-14.53343 3.29149-17.9288 9.79074-1.19843 2.29399-1.41016 28.62843-1.40698 175l .004 172.29966 2.07478 3.40329c2.77548 4.55265 5.65113 6.84636 10.18256 8.12197 6.40614 1.80335 10.23283.26106 26.47301-10.66955 14.62199-9.84147 15.64365-10.35538 20.5741-10.34912 3.25384.004 6.16648.65657 7.81239 1.75 4.74605 3.15293 113.09367 116.66752 114.50089 119.96129 3.57361 8.3645.80902 13.57253-15.88581 29.92626-7.95561 7.79306-16.63172 15.18709-21.7394 18.52692-20.36471 13.31615-42.57734 22.8698-58 24.94579-5.225.70332-9.725 1.59307-10 1.97722-.63291.88413-26.12961 1.75476-35.75 1.22075z" fill="#212121"/><path d="m193.52765 719.31026c-3.8348-.22648-7.2098-.75457-7.5-1.17354-.29021-.41896-4.65719-1.29992-9.7044-1.95768-12.61375-1.64384-31.23797-6.48266-39.08538-10.15491-12.29754-5.75471-23.46199-15.15699-30.90158-26.02413-3.87828-5.66508-17.429148-32.70149-24.30859-48.5-33.330674-76.54327-51.191757-151.97087-56.002663-236.5-6.402552-112.49483 19.404494-234.98554 70.579727-335 17.702766-34.597461 37.069986-47.708592 81.895236-55.4410833 4.95-.8538898 10.26406-1.5539647 11.80902-1.5557218 1.54496-.0017572 2.57224-.3862959 2.28286-.8545304-.28939-.4682345 3.73406-1.1311783 8.94098-1.47320858 10.79915-.7093699 28.46714.20630942 28.46714 1.47536728 0 .4670472 1.40596.8491768 3.12436.8491768 11.63862 0 43.49987 9.343034 61.37564 17.997876 24.54292 11.882848 33.36095 19.546583 32.22609 28.007641-.36281 2.704892-13.10152 24.808483-43.88828 76.152773-42.06643 70.15585-43.51247 72.41101-47.85745 74.63537-3.30796 1.69348-5.38706 2.129-7.94533 1.66436-1.90574-.34612-12.92755-5.84071-24.49292-12.2102-28.18948-15.52502-30.70821-16.63678-35.83416-15.81711-5.65782.90472-9.87417 3.74104-12.49604 8.40604l-2.21191 3.93556v172.15368c0 169.27423.0329 172.21824 1.96891 176.01308 3.17413 6.2218 10.69832 9.90874 17.58491 8.61681 2.03349-.38148 10.01211-5.00435 18.74342-10.86006 15.06838-10.1057 15.2558-10.19582 21.20276-10.19582 4.42202 0 6.65749.51191 8.5 1.94643 5.06174 3.94092 111.55886 115.63061 113.25 118.77183 4.19541 7.79278 1.80711 12.83672-13.4767 28.46187-9.36992 9.57919-15.06644 14.40046-24.08062 20.38068-22.99009 15.2522-49.85149 25.93919-65.19731 25.93919-1.83079 0-3.4787.40727-3.66204.90506-.3871 1.05104-23.08631 2.00875-33.30568 1.4052z" fill="#1d1d1d"/><path d="m193.21845 719.3235c-4.27636-.24219-7.03781-.80676-6.69098-1.36795.32481-.52555-.72771-.95555-2.33893-.95555-4.38268 0-24.64502-3.68305-33.18854-6.03263-16.13319-4.43683-31.03048-13.96906-41.01261-26.24246-2.78455-3.4237-8.15699-12.3054-11.93877-19.73712-83.880075-164.83583-95.8037813-357.71049-32.871592-531.72205 11.929302-32.98529 31.020634-75.303723 39.813452-88.251722 8.41246-12.387903 21.74166-23.730886 35.33188-30.066995 9.59742-4.474563 40.78975-11.947023 49.87053-11.947023 1.54391 0 2.80711-.3831605 2.80711-.8514679 0-.4683073 3.84842-1.1230549 8.55205-1.45499476 9.63668-.68007071 28.61791.22245045 27.9345 1.32823216-.246.3980245 2.71129 1.0349169 6.57175 1.4153166 9.53756.9398067 28.87966 5.7648647 40.70374 10.1539049 19.77506 7.340407 43.04365 20.387159 47.67653 26.732339 1.41848 1.94275 2.04214 4.281958 1.99959 7.5-.0574 4.342776-3.14572 9.817166-43.25599 76.67667-23.75678 39.6-44.12746 72.77629-45.26818 73.72509-3.09144 2.57132-8.40141 3.75572-12.16399 2.71319-1.7875-.49527-14.05-6.85459-27.25-14.13181-22.58893-12.45339-24.32766-13.23353-29.57303-13.26889-6.86431-.0463-12.65906 3.35992-15.52068 9.12318-1.85272 3.73135-1.90629 8.65886-1.90629 175.33924v171.5l2.08699 4c3.77642 7.23803 11.94584 10.85536 19.44302 8.60916 2.11039-.63229 10.25006-5.48956 18.08815-10.79392 15.75972-10.66526 20.34287-12.19667 26.68562-8.91671 1.72424.89164 28.01126 27.49946 58.4156 59.12848 40.96266 42.61263 55.77329 58.64784 57.1828 61.9108 1.71092 3.96072 1.76773 4.88367.56506 9.17918-1.14387 4.08554-3.29749 6.75017-14.90218 18.43821-9.38783 9.45527-16.4775 15.58291-23.02286 19.89882-22.95211 15.13421-50.94 26.03804-66.85122 26.04461-1.95108.00081-3.05539.41174-2.69098 1.00137.37053.59952-.90739 1.00207-3.19098 1.00517-2.09496.003-8.08402.16842-13.30902.36795-5.225.19952-12.7767.17719-16.78155-.0496z" fill="#191919"/><path d="m193.51586 719.31781c-4.39127-.2257-7.42437-.75632-6.74022-1.17915.69043-.42671-3.09874-1.28563-8.51586-1.93036-13.93107-1.65802-33.19135-6.62574-41.57257-10.72262-17.0102-8.31488-28.19698-19.98767-38.468482-40.13974-36.483626-71.5787-60.548526-152.78062-69.154111-233.34594-3.602026-33.7221-4.655119-88.90482-2.242341-117.5 5.095883-60.39415 14.833025-109.87433 31.879771-162 12.97793-39.68401 34.121069-88.798023 45.892513-106.605049 9.27705-14.033691 25.22329-26.991654 40.38082-32.813574 8.64229-3.3194559 26.35218-7.4498522 39.70303-9.2597568 5.04813-.6843478 8.99976-1.5333308 8.78141-1.886629s3.43729-.9129499 8.12364-1.24367057c10.32063-.72833739 29.08346.26958447 27.22534 1.44800957-.82535.5234393.12233.8357005 2.56556.845357 6.14033.024269 27.6395 4.70074 39.38158 8.5662288 12.93375 4.257786 36.10096 15.458629 45.74406 22.116259 8.09704 5.590229 11.10068 10.317409 10.06464 15.839952-.3532 1.882728-20.1371 35.914308-44.01117 75.706513-33.08261 55.14056-44.08024 72.70145-46.3658 74.03636-6.60057 3.85515-9.59966 2.88132-36.63672-11.8963-17.25439-9.43071-26.2467-13.79051-29.10908-14.11314-6.0501-.68194-12.57731 2.49592-16.1192 7.84785l-2.82267 4.26516-.2989 168.07321c-.16439 92.44027-.0223 170.41301.31565 173.27276 1.1998 10.15116 8.67238 16.69191 18.28595 16.00569 4.77456-.34082 6.71674-1.331 19.5-9.9417 7.80852-5.25974 15.18022-10.05825 16.38156-10.66335 3.05077-1.53663 8.89101-1.37118 12.21156.34595 3.27742 1.69482 112.93175 115.55106 115.0192 119.4267 1.89658 3.52124 1.78342 9.90404-.24485 13.81075-.90906 1.75098-7.39424 8.99119-14.41151 16.08936-14.63484 14.80358-24.62822 21.89893-44.75866 31.7789-16.42545 8.06157-25.88881 11.18342-38.45665 12.68636-5.48113.65548-9.42066 1.53814-8.75451 1.96147.68048.43245-.5837.77641-2.88522.78502-2.253.008-8.103.17915-13 .3794-4.89699.20025-12.49648.17943-16.88776-.0463z" fill="#151515"/><path d="m194.0194 719.31654c-4.41659-.24411-6.94124-.74681-6.16379-1.2273.7967-.49239-1.58081-1.09372-6.0194-1.52245-9.15521-.88431-28.74276-4.95426-36.2131-7.52443-8.21774-2.82732-18.33956-8.38796-24.62311-13.52722-11.93805-9.76405-19.01585-20.96003-33.946246-53.69771-41.351541-90.67096-61.211442-181.59211-61.229719-280.31743-.012434-67.16277 8.014725-124.02543 26.556812-188.12272 12.990518-44.90632 37.604416-104.77611 52.183783-126.929588 9.29024-14.116604 24.57363-26.941476 38.92501-32.663449 10.04167-4.0036675 31.82437-9.0435445 44.85845-10.3789243 3.7393-.3831024 6.28738-1.0125791 5.6624-1.398837-.62498-.386258 2.94199-.9665096 7.92659-1.28944796 10.16328-.65845022 27.79697.21126393 26.05919 1.28526996-.62126.3839601 1.93793.9938781 5.68708 1.3553734 24.67301 2.3789828 58.60988 14.6641819 81.48819 29.4988529 8.88751 5.762804 11.10334 8.629155 11.23404 14.532095.0866 3.909783-3.50525 10.264893-43.14768 76.342555-25.97294 43.29277-44.47398 73.1143-46.32673 74.67328-2.33529 1.96502-4.19423 2.59554-7.65234 2.59554-3.98492 0-7.77095-1.75437-29.67328-13.75-24.47504-13.40468-25.25819-13.75-31.18339-13.75-5.11685 0-6.65863.44299-9.75105 2.80169-2.02027 1.54093-4.46024 4.24093-5.42216 6-1.64295 3.00447-1.76479 13.52296-2.01028 173.54936-.17945 116.97623.0687 171.5768.79208 174.26313 1.37256 5.09731 6.15016 10.46039 10.63781 11.94145 7.2585 2.39552 11.22913.96627 27.70791-9.97362 16.09617-10.68589 19.8412-12.15537 25.89048-10.15892 2.6511.87494 16.71468 14.9148 58.85824 58.75896 30.45615 31.68513 56.19981 58.8832 57.20814 60.44016 2.23249 3.44715 2.40295 10.55746.34801 14.5163-2.89127 5.57006-25.87757 27.82893-35.18134 34.06799-24.61937 16.50963-52.23153 27.20388-70.5 27.30479-2.62867.0145-3.12657.26066-2 .98871 1.09182.70559.27546.97517-3 .99068-2.475.0117-8.1.18286-12.5.38032s-11.36627.17295-15.4806-.0545z" fill="#111"/><path d="m194.5 719.06196c-4.4-.38236-6.875-.82815-5.5-.99065s-2.45-.92626-8.5-1.69724c-17.83813-2.27321-35.67843-7.02172-45.97266-12.23643-7.37618-3.73654-10.77952-6.31648-18.607-14.1053-9.3502-9.30402-9.79649-9.96348-18.632421-27.53234-41.233969-81.98727-64.478618-168.01242-70.372713-260.43945-1.497985-23.49035-.638955-81.80683 1.518132-103.06055 8.475405-83.50795 29.077152-157.32314 64.141076-229.814781 10.367106-21.433089 15.153656-28.788404 24.561406-37.742553 15.41843-14.675032 30.30592-21.093387 61.24371-26.4036318 6.53374-1.1214688 13.50874-2.0838902 15.5-2.1387142 3.18785-.087769 3.32174-.1857386 1.12047-.819874-3.78323-1.0898634 13.708-2.00119259 25-1.30255183 5.69867.35257873 8.49965.84054883 7 1.21949693-1.7136.4330126-.1459.8563708 4.98381 1.3458807 26.09183 2.4898485 57.44546 13.4991222 81.87525 28.7490472 9.43875 5.891994 12.13172 9.385469 12.1372 15.745051.003 3.938456-3.91684 10.882296-42.62454 75.5-23.44556 39.13945-43.92921 72.51263-45.51923 74.16263-2.56012 2.65669-3.54677 2.99711-8.62172 2.97472-5.40841-.0239-6.85577-.64915-25.73077-11.11615-11-6.09998-22.34754-12.2761-25.21676-13.72472-10.69459-5.39951-20.70137-2.29967-25.3932 7.86615-1.77166 3.83867-1.847 10.86806-1.86808 174.28212-.0195 151.46625.14906 170.69143 1.52577 173.98635 3.08166 7.37546 8.55848 11.23153 15.95227 11.23153 5.6586 0 7.66102-1.01837 24.0997-12.2564 14.69343-10.04492 19.06633-11.44551 25.14705-8.05431 4.10453 2.28909 114.08318 116.73318 115.33009 120.01283 1.34082 3.5266 1.13206 8.88643-.48998 12.58-2.6084 5.93963-25.14537 27.68-36.37431 35.08859-12.24414 8.07841-28.51158 16.46282-40.02208 20.6278-8.23252 2.97888-22.91374 5.89553-30.69047 6.09715-3.48125.0903-3.67578.20753-1.5.90434 2.06177.66029 1.69381.81811-2.09912.90032-2.52952.0548-7.92952.27004-12 .47826-4.07049.20822-11.00088.0657-15.40088-.31662z" fill="#0d0d0d"/><path d="m195 719.05686c-4.675-.37634-6.925-.81689-5-.97901 1.98972-.16756-1.15704-.85823-7.29245-1.60058-31.53778-3.81591-50.36911-10.86289-64.84683-24.2667-7.86947-7.28575-13.34026-15.12624-20.381983-29.21057-61.793803-123.59537-84.055857-259.65576-64.874903-396.5 9.575998-68.31882 29.633239-134.12046 60.408596-198.182024 8.99638-18.726732 15.75243-28.99788 24.38627-37.074146 11.96363-11.191015 23.59949-17.434092 40.4589-21.7077325 11.76307-2.9817862 31.49143-6.4833709 37.49177-6.6544123 3.85117-.1097786 3.93419-.1681514 1.15063-.8090686-4.47613-1.0306349 10.72298-1.81627956 23-1.18887426 7.30703.37341886 9.05746.69172946 6.5 1.18200766l-3.5.6709675 4 .1356626c11.88003.4029189 36.66722 6.0110468 51.55353 11.6640409 18.99204 7.212126 43.81998 21.384507 46.48255 26.533356 3.71003 7.174403 4.59845 5.403712-40.65889 81.036123-23.16755 38.71676-43.00303 71.63839-44.07884 73.15919-1.07582 1.5208-3.2482 3.4333-4.82753 4.25-5.87016 3.03558-8.32314 2.17001-34.5223-12.18178-21.03823-11.52466-25.77058-13.73828-30.19347-14.12342-2.98581-.25999-6.53466.0775-8.2392.78355-4.18178 1.73214-9.78835 8.24769-10.49532 12.1969-.32587 1.82031-.4638 80.29268-.30651 174.38304l.28598 171.07338 2.48282 3.62333c3.82694 5.58488 9.01421 8.04727 15.85578 7.52672 5.21077-.39647 6.87531-1.2377 20.91218-10.56862 8.38793-5.57582 16.77244-10.42332 18.63223-10.77222 7.08957-1.33001 8.59334.0341 66.19089 60.04403 30.08975 31.35 55.54338 58.35 56.56363 60 2.38968 3.86473 2.3687 9.59879-.0523 14.28984-3.10298 6.01247-26.42437 28.21063-36.6892 34.92216-25.1879 16.46876-50.40689 25.78532-71.51535 26.41964l-4.38068.13164 3.5.73672c3.15562.66423 2.94867.74967-2.10331.86836-3.08182.0724-8.25682.29839-11.5.5022-3.24318.2038-9.72169.0626-14.39669-.3137z" fill="#090909"/><path d="m195.5 719.08826c-7.22753-.5885-7.56549-.7039-3.5-1.19512l4.5-.54373-4.71973-.1747c-7.97737-.2953-25.71003-3.22286-37.46277-6.1849-19.20089-4.8392-34.6403-14.6217-45.08154-28.56395-6.03609-8.06002-19.16549-34.01302-29.557135-58.42586-64.151973-150.71065-71.0386567-317.69577-19.548377-474 14.506086-44.03477 37.569968-95.065386 49.855392-110.308896 9.35173-11.603437 21.45628-20.530223 35.40603-26.111001 8.47867-3.392004 30.14841-8.2185808 44.96057-10.0142238 7.1095-.8618685 9.69861-1.4488117 7.14756-1.6203289-2.89001-.1943067-2.04876-.4321898 3.03155-.8572431 3.86735-.32356894 11.74235-.33215456 17.5-.019079 5.82262.3166085 8.47138.7099261 5.96845.886263-3.62845.2556323-2.88773.4726879 3.82451 1.1207039 29.6208 2.8596658 62.92713 14.3265029 86.17549 29.6688479 9.54989 6.302281 11.1198 8.138167 11.75148 13.742479.51208 4.543091.26975 4.977297-43.26313 77.520488-27.15123 45.24483-44.76751 73.61851-46.38322 74.70722-1.52998 1.03095-4.4623 1.75323-7.10513 1.75012-3.89117-.005-7.78143-1.80961-28.75394-13.34152-13.33967-7.33493-25.82618-13.69083-27.74781-14.12422-7.73027-1.74346-16.42646 2.42934-19.59282 9.40146-1.79217 3.94626-1.86151 10.48655-1.86151 175.59893 0 166.34143.0571 171.62585 1.89954 175.68386 3.40569 7.50129 13.02694 11.69461 20.73735 9.03815 2.12829-.73325 10.03518-5.49905 17.57087-10.59065 15.22647-10.28801 18.31579-11.59419 23.87908-10.09615 3.73798 1.00653 7.33687 4.65827 108.49668 110.0898 14.6755 15.29521 14.37421 18.29696-3.73842 37.24555-9.57945 10.02159-14.6486 14.37138-24.14783 20.72105-12.42628 8.30623-28.9367 16.77567-41.39914 21.23672-7.01771 2.51206-23.81997 5.52467-32.47039 5.82186l-4.37166.1502 4.5.69961c4.37044.67947 4.31286.70419-2 .8585-3.575.0874-8.75.3214-11.5.52002-2.75.19863-8.6.068-13-.29026z" fill="#050505"/><path d="m196 718.99237c-8.40853-.61309-8.43543-.62358-2.5-.97417 4.81313-.2843 5.20875-.4185 2-.67844-19.5479-1.58357-40.93988-5.64569-52.3694-9.94443-13.68329-5.1464-27.96997-16.45994-36.40942-28.83239-4.35859-6.38981-18.56344-35.17633-26.184166-53.06294-61.070892-143.33951-71.0126826-300.63493-28.378855-449 11.056173-38.47531 27.932934-81.845892 45.345171-116.529845 11.75327-23.411699 30.14583-40.359673 51.52746-47.480408 10.51958-3.503342 34.53852-8.3261514 45.96921-9.230248 9.19554-.7273097 9.32373-.7703334 4-1.3424483-3.025-.3250816 2.375-.5887574 12-.5859463 9.625.00281 14.8.2669626 11.5.5870033l-6 .5818923 9.5.7091307c29.08073 2.1707405 63.52013 13.9227263 88.48072 30.1928643 8.72824 5.689354 11.51928 9.177985 11.51928 14.398412 0 2.040564-12.72955 24.172267-42.96299 74.695813-23.62965 39.48785-43.94582 72.84226-45.14705 74.12091-3.17055 3.37489-8.20542 4.81715-12.08962 3.46311-1.72695-.60202-13.75101-6.90394-26.72013-14.00426-12.96911-7.10033-25.19606-13.20874-27.17098-13.57425-7.50433-1.38888-16.71908 3.4056-19.5452 10.16946-2.03243 4.86428-2.03243 345.79334 0 350.65762 1.75848 4.20865 6.65238 8.29622 11.76765 9.82879 6.31828 1.893 11.11983-.025 27.89445-11.14231 13.24195-8.77609 15.6417-10.01529 19.39492-10.01529 2.82692 0 5.37126.76499 7.48346 2.25 4.61513 3.24474 111.82582 115.32784 113.60458 118.76758 3.65339 7.06488 1.24444 11.73067-14.21731 27.53692-12.83052 13.11639-23.08601 20.69441-40.37681 29.83536-20.32795 10.74657-33.9922 14.8669-54.25886 16.36127-9.97037.73517-10.04638.75951-4.15611 1.33076 5.52933.53625 5.2808.59508-3.16821.75-5.04252.0925-9.76752.30584-10.5.47418-.73249.16833-5.15679.0272-9.83179-.3137z" fill="#020202"/><path d="m195 718 7.5-.63968-6.21562-.18016c-16.85266-.48847-46.2019-6.61327-57.88261-12.07933-12.2113-5.71436-22.52035-14.19241-29.91384-24.60083-2.34411-3.3-7.63037-12.75-11.747238-21-92.9921987-186.35171-94.0227336-404.45845-2.792422-591 10.94121-22.371843 16.90248-30.910468 28.24722-40.459913 7.71267-6.492146 18.76907-12.677886 28.49893-15.944338 9.2237-3.0965286 34.90884-8.0460713 46.03667-8.8712985l9.76891-.7244505-6.5-.5774011c-3.69063-.3278422 1.06368-.5756775 11-.5734132 10.49016.00239 14.69606.2336757 10.5.5774011l-7 .5734132 10.13234.7009979c22.51532 1.5577032 48.94804 8.9711891 70.86766 19.8759841 22.28246 11.085303 31.25455 18.713222 30.15066 25.633588-.28386 1.779577-19.8313 35.430915-43.85655 75.5-41.7982 69.71066-43.50105 72.36889-47.73527 74.51682-2.88893 1.46549-5.27472 2.01572-6.97485 1.60859-1.42119-.34034-12.0308-5.8051-23.5769-12.14392-28.72676-15.77101-30.59545-16.57861-36.69054-15.85674-6.45903.76498-10.81078 3.54957-13.85464 8.86527l-2.46191 4.29941v172.5c0 167.66399.0534 172.60763 1.90629 176.33924 3.38889 6.82519 11.93613 10.75711 20.06773 9.23161 2.09553-.39312 10.11905-5.04495 19.30588-11.19303 15.3154-10.24949 15.84265-10.50938 20.48023-10.09489 2.74425.24526 5.6635 1.2283 6.89328 2.32125 2.08877 1.85638 90.86978 94.04357 106.03765 110.1059 12.51899 13.25725 12.02802 15.94419-6.36892 34.85552-13.90478 14.29357-26.65398 23.51392-45.32214 32.77742-19.61354 9.73261-31.432 13.04688-51.45246 14.42889l-10.54754.72809 7 .57341c3.93682.32249-1.31434.57185-12 .56985-12.70568-.00239-16.5154-.21549-11.5-.64326z"/></g></svg>