<?xml version="1.0" standalone="no"?>
<!DOCTYPE svg PUBLIC "-//W3C//DTD SVG 20010904//EN"
 "http://www.w3.org/TR/2001/REC-SVG-20010904/DTD/svg10.dtd">
<svg version="1.0" xmlns="http://www.w3.org/2000/svg"
 width="1280.000000pt" height="1280.000000pt" viewBox="0 0 1280.000000 1280.000000"
 preserveAspectRatio="xMidYMid meet">
<metadata>
Created by potrace 1.11, written by Peter Selinger 2001-2013
</metadata>
<g transform="translate(0.000000,1280.000000) scale(0.100000,-0.100000)"
fill="#000000" stroke="none">
<path d="M1209 10460 c-5 -3 -19 -35 -32 -70 -13 -36 -59 -159 -102 -275 -42
-115 -92 -250 -110 -300 -18 -49 -37 -101 -42 -115 -5 -14 -20 -54 -32 -90
-13 -36 -30 -80 -38 -98 -8 -18 -16 -40 -18 -50 -2 -9 -15 -46 -29 -82 -52
-137 -239 -648 -262 -715 -13 -38 -28 -79 -33 -90 -9 -19 -69 -179 -75 -200
-2 -5 -6 -17 -9 -25 -4 -8 -15 -40 -26 -70 -11 -30 -34 -93 -51 -140 l-32 -85
1 -570 c1 -313 3 -589 5 -612 12 -126 80 -264 178 -366 38 -40 66 -65 62 -57
-4 8 7 1 26 -17 18 -18 37 -30 42 -27 4 3 8 1 8 -4 0 -5 10 -13 23 -17 12 -4
24 -8 27 -9 75 -33 122 -44 205 -49 38 -3 80 -1 92 4 14 5 25 4 29 -3 4 -6 7
-904 7 -1997 l0 -1987 5308 1 5307 0 1 1985 c0 1092 0 1995 1 2008 0 20 4 22
32 17 17 -3 35 -8 40 -11 30 -19 283 -22 283 -4 0 1 11 4 25 6 39 7 164 71
194 99 15 14 31 25 35 25 9 0 91 95 91 105 0 3 5 11 10 18 54 63 59 73 38 62
-7 -4 -5 0 4 8 10 8 15 17 11 20 -3 4 -1 7 6 7 8 0 11 7 7 15 -3 8 0 15 6 15
6 0 8 3 5 7 -4 3 -2 12 4 20 6 7 8 13 5 13 -4 0 -2 8 3 19 21 37 24 116 27
676 2 314 4 575 5 580 1 6 -64 213 -145 460 -82 248 -200 608 -263 800 -63
193 -118 359 -123 370 -4 11 -54 162 -110 335 -56 173 -104 322 -107 330 -4 8
-7 17 -8 20 -1 3 -7 25 -15 50 -7 25 -17 49 -22 55 -9 10 -10452 15 -10469 5z"/>
</g>
</svg>
